<?xml version="1.0" encoding="utf-8"?>
<!-- Generator: Adobe Illustrator 26.0.1, SVG Export Plug-In . SVG Version: 6.00 Build 0)  -->
<svg version="1.1" id="Layer_1" xmlns="http://www.w3.org/2000/svg" xmlns:xlink="http://www.w3.org/1999/xlink" x="0px" y="0px"
	 viewBox="0 0 583.6 211.22" style="enable-background:new 0 0 583.6 211.22;" xml:space="preserve">
<style type="text/css">
	.st0{fill:url(#SVGID_1_);}
	.st1{fill:url(#SVGID_00000163767479530039638630000016268608368296664505_);}
	.st2{fill:url(#SVGID_00000089547296042847406980000004708734984586714502_);}
	.st3{fill:url(#SVGID_00000028308824081482389490000012466202632706213794_);}
	.st4{fill:url(#SVGID_00000052811272424526091000000010267565823537474435_);}
	.st5{fill:url(#SVGID_00000044146190539374954060000005914924728622522803_);}
	.st6{fill:url(#SVGID_00000093146579507912128930000010187007036787538623_);}
	.st7{fill:url(#SVGID_00000096759511562214620980000017505486380762377872_);}
	.st8{fill:url(#SVGID_00000055673067758580535080000018039582238282017408_);}
	.st9{fill:url(#SVGID_00000115493980313648335880000005580765047239495083_);}
	.st10{fill:url(#SVGID_00000181053955870781775160000002031090720686500994_);}
	.st11{fill:url(#SVGID_00000141426327402192066020000014444311190935759543_);}
	.st12{fill:url(#SVGID_00000052821671006719460170000012130470315130884772_);}
	.st13{fill:url(#SVGID_00000067935989059001659580000010985463125020012682_);}
	.st14{fill:url(#SVGID_00000031902346224394302290000018090270863016348834_);}
</style>
<g>
	<g>
		<linearGradient id="SVGID_1_" gradientUnits="userSpaceOnUse" x1="71.1645" y1="117.127" x2="89.5327" y2="117.127">
			<stop  offset="1.118836e-07" style="stop-color:#1A6F94"/>
			<stop  offset="1" style="stop-color:#42B6A0"/>
		</linearGradient>
		<path class="st0" d="M71.16,152.01c0-23.31,0-46.39,0-69.77c6.14,0,12.07,0,18.37,0c0,23.26,0,46.33,0,69.77
			C83.57,152.01,77.51,152.01,71.16,152.01z"/>
		
			<linearGradient id="SVGID_00000078015196422483267010000007731803681525219978_" gradientUnits="userSpaceOnUse" x1="105.0464" y1="117.5926" x2="123.8386" y2="117.5926">
			<stop  offset="1.118836e-07" style="stop-color:#1A6F94"/>
			<stop  offset="1" style="stop-color:#42B6A0"/>
		</linearGradient>
		<path style="fill:url(#SVGID_00000078015196422483267010000007731803681525219978_);" d="M105.06,82.86c6.69,0,12.62,0,18.78,0
			c0,23.16,0,46.06,0,69.43c-5.41,0-10.53,0.1-15.65-0.04c-3.42-0.09-3.14-2.78-3.14-5.13c0-16.33,0-32.66,0-48.99
			C105.06,93.17,105.06,88.2,105.06,82.86z"/>
		
			<linearGradient id="SVGID_00000014609554109367352550000008420522544879212421_" gradientUnits="userSpaceOnUse" x1="175.0233" y1="117.3924" x2="191.6088" y2="117.3924">
			<stop  offset="1.118836e-07" style="stop-color:#1A6F94"/>
			<stop  offset="1" style="stop-color:#42B6A0"/>
		</linearGradient>
		<path style="fill:url(#SVGID_00000014609554109367352550000008420522544879212421_);" d="M175.02,82.76c5.69,0,10.97,0,16.59,0
			c0,23.08,0,45.99,0,69.27c-5.36,0-10.76,0-16.59,0C175.02,129,175.02,106.11,175.02,82.76z"/>
		<g>
			
				<linearGradient id="SVGID_00000008107430349151029000000004319073711074891163_" gradientUnits="userSpaceOnUse" x1="156.3617" y1="-6.8029" x2="103.392" y2="154.1697">
				<stop  offset="1.118836e-07" style="stop-color:#1A6F94"/>
				<stop  offset="1" style="stop-color:#42B6A0"/>
			</linearGradient>
			<path style="fill:url(#SVGID_00000008107430349151029000000004319073711074891163_);" d="M61.62,67.46
				c4.93-2.63,9.86-5.28,14.8-7.9c16.15-8.58,32.33-17.1,48.45-25.74c4.11-2.2,7.73-2.52,12.15-0.13
				c19.75,10.66,39.71,20.95,59.59,31.39c1.41,0.74,2.75,1.59,5.39,3.12c-47.66,0-93.83,0-140,0C61.87,67.95,61.74,67.7,61.62,67.46
				z"/>
			
				<linearGradient id="SVGID_00000030457864770222295030000009750318946266681483_" gradientUnits="userSpaceOnUse" x1="187.8068" y1="3.5444" x2="134.8386" y2="164.5126">
				<stop  offset="1.118836e-07" style="stop-color:#1A6F94"/>
				<stop  offset="1" style="stop-color:#42B6A0"/>
			</linearGradient>
			<path style="fill:url(#SVGID_00000030457864770222295030000009750318946266681483_);" d="M202.3,179.2c-47.17,0-93.89,0-140.89,0
				c0-3.85,0-7.41,0-11.26c47.02,0,93.76,0,140.89,0C202.3,171.51,202.3,175.07,202.3,179.2z"/>
			
				<linearGradient id="SVGID_00000054987643576668380830000017431528711974023343_" gradientUnits="userSpaceOnUse" x1="183.7484" y1="2.2089" x2="130.7802" y2="163.1771">
				<stop  offset="1.118836e-07" style="stop-color:#1A6F94"/>
				<stop  offset="1" style="stop-color:#42B6A0"/>
			</linearGradient>
			<path style="fill:url(#SVGID_00000054987643576668380830000017431528711974023343_);" d="M202.42,155.05c0,3.07,0,5.87,0,9.12
				c-46.83,0-93.69,0-140.94,0c0-2.83,0-5.75,0-9.12C108.15,155.05,155.02,155.05,202.42,155.05z"/>
			
				<linearGradient id="SVGID_00000044164702688225908110000011738875533570032023_" gradientUnits="userSpaceOnUse" x1="187.0358" y1="3.2907" x2="134.0677" y2="164.2589">
				<stop  offset="1.118836e-07" style="stop-color:#1A6F94"/>
				<stop  offset="1" style="stop-color:#42B6A0"/>
			</linearGradient>
			<path style="fill:url(#SVGID_00000044164702688225908110000011738875533570032023_);" d="M157.65,152.13c-5.5,0-10.75,0-16.42,0
				c0-23.05,0-45.92,0-69.17c5.25,0,10.64,0,16.42,0C157.65,105.76,157.65,128.63,157.65,152.13z"/>
			
				<linearGradient id="SVGID_00000166637571821760491860000013918195288483754146_" gradientUnits="userSpaceOnUse" x1="158.236" y1="-6.1861" x2="105.2679" y2="154.782">
				<stop  offset="1.118836e-07" style="stop-color:#1A6F94"/>
				<stop  offset="1" style="stop-color:#42B6A0"/>
			</linearGradient>
			<path style="fill:url(#SVGID_00000166637571821760491860000013918195288483754146_);" d="M202.43,71.77c0,2.54,0,4.8,0,7.48
				c-47.38,0-94.72,0-142.07,0c-1.64-7.06-1.13-7.77,6.15-7.78c43.94-0.03,87.89-0.04,131.83-0.04
				C199.63,71.43,200.91,71.64,202.43,71.77z"/>
		</g>
	</g>
	<g>
		<g>
			
				<linearGradient id="SVGID_00000019664631981253068170000016836149239802461332_" gradientUnits="userSpaceOnUse" x1="450.3592" y1="-23.5721" x2="226.7923" y2="177.982">
				<stop  offset="1.118836e-07" style="stop-color:#1A6F94"/>
				<stop  offset="1" style="stop-color:#42B6A0"/>
			</linearGradient>
			<path style="fill:url(#SVGID_00000019664631981253068170000016836149239802461332_);" d="M293.39,64.5l-34.64,62.87h14.74
				l7.62-14.55h38.5l7.65,14.55h14.96L307.46,64.5H293.39z M285.9,103.66l14.42-27.51l14.47,27.51H285.9z"/>
			
				<linearGradient id="SVGID_00000065768623761379455430000008036768441498316941_" gradientUnits="userSpaceOnUse" x1="477.9442" y1="7.0257" x2="254.3774" y2="208.5798">
				<stop  offset="1.118836e-07" style="stop-color:#1A6F94"/>
				<stop  offset="1" style="stop-color:#42B6A0"/>
			</linearGradient>
			<path style="fill:url(#SVGID_00000065768623761379455430000008036768441498316941_);" d="M407.65,68.45
				c-6.31-2.63-13.64-3.95-21.99-3.95H352v62.87h33.65c8.36,0,15.69-1.32,21.99-3.95c6.3-2.63,11.22-6.3,14.74-11
				c3.52-4.7,5.28-10.19,5.28-16.48c0-6.35-1.76-11.86-5.28-16.53C418.87,74.74,413.95,71.09,407.65,68.45z M409.79,107.25
				c-2.31,3.23-5.57,5.75-9.79,7.54c-4.22,1.8-9.22,2.69-15.01,2.69h-18.7V74.38H385c5.79,0,10.79,0.9,15.01,2.69
				c4.22,1.8,7.48,4.3,9.79,7.5c2.31,3.2,3.46,6.99,3.46,11.36C413.26,100.25,412.1,104.02,409.79,107.25z"/>
			
				<linearGradient id="SVGID_00000058547417190063779720000005596038968171590845_" gradientUnits="userSpaceOnUse" x1="518.6729" y1="52.2025" x2="295.106" y2="253.7566">
				<stop  offset="1.118836e-07" style="stop-color:#1A6F94"/>
				<stop  offset="1" style="stop-color:#42B6A0"/>
			</linearGradient>
			<path style="fill:url(#SVGID_00000058547417190063779720000005596038968171590845_);" d="M513.23,79.41
				c-3.52-4.67-8.43-8.32-14.74-10.96c-6.31-2.63-13.64-3.95-21.99-3.95h-33.65v62.87h33.65c8.36,0,15.69-1.32,21.99-3.95
				c6.3-2.63,11.22-6.3,14.74-11c3.52-4.7,5.28-10.19,5.28-16.48C518.51,89.59,516.75,84.08,513.23,79.41z M500.63,107.25
				c-2.31,3.23-5.57,5.75-9.79,7.54c-4.22,1.8-9.22,2.69-15.01,2.69h-18.7V74.38h18.7c5.79,0,10.79,0.9,15.01,2.69
				c4.22,1.8,7.48,4.3,9.79,7.5c2.31,3.2,3.46,6.99,3.46,11.36C504.1,100.25,502.94,104.02,500.63,107.25z"/>
		</g>
		<g>
			
				<linearGradient id="SVGID_00000133509174180893312160000000520478992341444480_" gradientUnits="userSpaceOnUse" x1="468.3136" y1="-3.6568" x2="244.7467" y2="197.8973">
				<stop  offset="1.118836e-07" style="stop-color:#1A6F94"/>
				<stop  offset="1" style="stop-color:#42B6A0"/>
			</linearGradient>
			<path style="fill:url(#SVGID_00000133509174180893312160000000520478992341444480_);" d="M311.31,166.48
				c-1.65-1.19-3.88-2.1-6.7-2.72c-0.72-0.16-1.47-0.3-2.25-0.42c2.41-0.62,4.37-1.46,5.85-2.54c1.56-1.15,2.34-2.53,2.34-4.16
				c0-2.41-1.98-4.33-5.93-5.77c-3.96-1.44-9.71-2.16-17.26-2.16h-29.49v30.48h31.29c8.15,0,14.3-0.73,18.43-2.18
				c4.14-1.45,6.2-3.48,6.2-6.1C313.79,169.15,312.96,167.67,311.31,166.48z M286.09,153.16c4.08,0,7.21,0.35,9.4,1.04
				c2.19,0.7,3.28,1.76,3.28,3.18c0,1.39-1.09,2.44-3.28,3.13c-2.19,0.7-5.32,1.04-9.4,1.04h-16.55v-8.4H286.09z M298.5,173.71
				c-2.34,0.7-5.7,1.04-10.07,1.04h-18.88v-8.79h18.88c4.37,0,7.73,0.36,10.07,1.07c2.34,0.71,3.51,1.82,3.51,3.33
				C302.01,171.9,300.84,173.01,298.5,173.71z"/>
			
				<linearGradient id="SVGID_00000016042250151156029080000012451188396351586463_" gradientUnits="userSpaceOnUse" x1="505.6487" y1="37.7559" x2="282.0818" y2="239.31">
				<stop  offset="1.118836e-07" style="stop-color:#1A6F94"/>
				<stop  offset="1" style="stop-color:#42B6A0"/>
			</linearGradient>
			<path style="fill:url(#SVGID_00000016042250151156029080000012451188396351586463_);" d="M345.7,148.72l-28.32,30.48h12.05
				l6.23-7.05h31.48l6.26,7.05h12.23l-28.41-30.48H345.7z M339.59,167.7l11.79-13.34l11.83,13.34H339.59z"/>
			
				<linearGradient id="SVGID_00000142134132073007236130000008127467183106857403_" gradientUnits="userSpaceOnUse" x1="530.7244" y1="65.5702" x2="307.1576" y2="267.1244">
				<stop  offset="1.118836e-07" style="stop-color:#1A6F94"/>
				<stop  offset="1" style="stop-color:#42B6A0"/>
			</linearGradient>
			<polygon style="fill:url(#SVGID_00000142134132073007236130000008127467183106857403_);" points="437.96,169.35 403.25,148.72 
				393.63,148.72 393.63,179.2 405.23,179.2 405.23,158.56 439.94,179.2 449.56,179.2 449.56,148.72 437.96,148.72 			"/>
			
				<linearGradient id="SVGID_00000178183791347245888680000012493680704210919102_" gradientUnits="userSpaceOnUse" x1="563.7422" y1="102.194" x2="340.1753" y2="303.7481">
				<stop  offset="1.118836e-07" style="stop-color:#1A6F94"/>
				<stop  offset="1" style="stop-color:#42B6A0"/>
			</linearGradient>
			<polygon style="fill:url(#SVGID_00000178183791347245888680000012493680704210919102_);" points="510.34,179.2 524.01,179.2 
				495.92,162.33 522.39,148.72 509.26,148.72 478.15,164.36 478.15,148.72 466.46,148.72 466.46,179.2 478.15,179.2 478.15,171.39 
				488.18,166.42 			"/>
		</g>
	</g>
</g>
</svg>
