<svg width="508" height="308" viewBox="0 0 508 308" fill="none" xmlns="http://www.w3.org/2000/svg">
<path d="M363.076 61.1312C363.076 61.1312 364.825 55.2738 365.945 53.6433C367.064 52.0129 368.937 51.5977 370.43 50.5108C371.923 49.4238 374.169 48.4652 373.796 50.6467C373.423 52.8281 370.679 53.5075 370.679 53.5075L378.911 56.0965C378.911 56.0965 385.145 57.5911 384.149 59.2291C383.154 60.8595 380.535 60.316 377.293 61.2746C374.052 62.2257 370.437 61.954 370.437 61.954L368.944 65.2224L363.581 63.8637L363.083 61.1388L363.076 61.1312Z" fill="white" stroke="#263238" stroke-miterlimit="10" stroke-linecap="round"/>
<path d="M368.315 58.2704C368.315 58.2704 369.808 57.9986 371.308 58.2704C372.808 58.5421 374.425 58.9497 374.425 58.9497C374.425 58.9497 379.664 55.002 380.161 55.9531C380.659 56.9041 378.164 58.8139 377.418 59.4932C376.671 60.1725 376.547 60.716 374.674 61.2595C372.801 61.803 370.437 61.9388 370.437 61.9388" fill="white"/>
<path d="M368.315 58.2704C368.315 58.2704 369.808 57.9986 371.308 58.2704C372.808 58.5421 374.425 58.9497 374.425 58.9497C374.425 58.9497 379.664 55.002 380.161 55.9531C380.659 56.9041 378.164 58.8139 377.418 59.4932C376.671 60.1725 376.547 60.716 374.674 61.2595C372.801 61.803 370.437 61.9388 370.437 61.9388" stroke="#263238" stroke-miterlimit="10" stroke-linecap="round"/>
<path d="M360.837 65.6224L363.076 61.1312L370.81 64.9431L369.062 70.2495L360.837 65.6224Z" fill="white" stroke="#263238" stroke-miterlimit="10" stroke-linecap="round"/>
<path d="M344.837 136.508C344.837 136.508 344.464 195.551 341.678 217.667C338.893 239.784 338.893 248.102 338.893 248.102C338.893 248.102 340.379 249.521 340.192 250.737C340.006 251.952 339.819 254.186 339.819 254.186C339.819 254.186 342.052 257.839 345.024 260.27C347.996 262.708 350.781 262.708 348.369 264.331C345.957 265.954 336.481 265.146 334.249 264.535C332.016 263.923 330.164 263.116 330.164 263.116L329.977 264.739L325.893 264.127C325.893 264.127 325.519 262.708 325.519 259.87V255.001C325.519 255.001 324.773 250.133 324.773 248.917C324.773 247.702 325.699 245.672 324.773 242.018C323.847 238.365 322.174 201.846 322.174 201.846L317.53 161.267L308.987 211.584L303.23 250.54C303.23 250.54 303.79 253.175 303.043 253.99C302.297 254.805 301.371 257.236 301.371 257.236C301.371 257.236 301.557 260.889 300.998 261.493C300.438 262.104 299.138 262.504 297.652 262.912C296.166 263.319 295.054 263.319 295.054 263.319L293.194 261.9C293.194 261.9 292.448 262.716 291.149 263.523C289.849 264.339 284.272 265.146 282.42 265.146C280.567 265.146 277.588 265.35 278.335 263.319C279.081 261.289 281.68 260.074 282.979 259.259C284.279 258.443 289.296 254.797 289.67 254.186C290.043 253.575 289.67 251.952 290.043 250.533C290.416 249.114 291.529 247.898 291.529 246.879C291.529 245.86 291.156 196.563 291.156 195.747C291.156 194.932 291.715 138.531 291.715 138.531L344.851 136.501L344.837 136.508Z" fill="#263238" stroke="#263238" stroke-miterlimit="10" stroke-linecap="round"/>
<path d="M321.725 45.9139L347.367 58.1346L354.361 80.8776L361.044 64.5884L370.99 69.6759C370.99 69.6759 364.307 92.9246 362.441 98.8651C360.574 104.806 358.245 108.874 356.068 109.048C353.891 109.214 344.726 100.05 344.726 100.05L347.367 139.256C347.367 139.256 335.714 146.721 324.683 147.234C313.652 147.74 299.823 146.555 297.182 145.196C294.542 143.838 290.036 141.8 290.036 141.8L291.432 101.583C291.432 101.583 284.749 106.67 283.042 105.485C281.334 104.3 268.901 75.1107 268.901 75.1107L274.492 64.0826L285.523 79.0131C285.523 79.0131 290.492 58.6479 290.803 57.9685C291.114 57.2892 291.736 56.4438 291.736 56.4438L311.779 46.0951L321.725 45.929V45.9139Z" fill="#186E93" stroke="#263238" stroke-miterlimit="10" stroke-linecap="round"/>
<path d="M344.726 100.05L343.911 69.5552L345.957 61.4332" stroke="#263238" stroke-miterlimit="10" stroke-linecap="round"/>
<path d="M285.523 79.0056L289.663 85.9878" stroke="#263238" stroke-miterlimit="10" stroke-linecap="round"/>
<path d="M354.361 80.87L349.482 89.4373" stroke="#263238" stroke-miterlimit="10" stroke-linecap="round"/>
<path d="M291.425 101.575L292.448 75.6391V62.8599" stroke="#263238" stroke-miterlimit="10" stroke-linecap="round"/>
<path d="M327.745 48.6539L330.157 60.6255L324.4 63.4636L331.456 67.5246C331.456 67.5246 331.083 69.5551 323.467 79.4962C315.85 89.4373 313.618 92.683 313.618 92.683" stroke="#263238" stroke-miterlimit="10" stroke-linecap="round"/>
<path d="M302.85 51.6959L300.065 58.3912L304.522 62.6485L298.765 69.14C298.765 69.14 307.128 91.8679 315.671 99.7785" stroke="#263238" stroke-miterlimit="10" stroke-linecap="round"/>
<path d="M323.405 45.6271C323.405 45.6271 323.197 46.9933 322.568 50.4051C321.946 53.817 311.849 85.9953 311.849 85.9953C311.849 85.9953 308.414 64.1657 307.681 58.2553C306.955 52.345 307.888 48.0199 307.888 48.0199L323.398 45.6346L323.405 45.6271Z" fill="white" stroke="#263238" stroke-miterlimit="10" stroke-linecap="round"/>
<path d="M316.742 59.9537L313.721 64.0449L315.905 72.5745L311.848 85.9878L309.554 72.1216L311.745 63.7052L309.975 59.1536L313.092 54.4963L316.742 59.9537Z" fill="#263238" stroke="#263238" stroke-miterlimit="10" stroke-linecap="round"/>
<path d="M307.888 48.0123L323.397 45.6271C323.397 45.6271 323.19 46.9933 322.561 50.4051C322.319 51.711 320.695 57.2212 318.781 63.524L318.394 63.8184L312.982 57.6817L308.503 63.0259C308.503 63.0259 308.427 62.9428 308.296 62.807C308.026 60.9199 307.805 59.3197 307.667 58.2554C306.941 52.345 307.874 48.0199 307.874 48.0199L307.888 48.0123Z" fill="white" stroke="#263238" stroke-miterlimit="10" stroke-linecap="round"/>
<path d="M323.612 41.5359L323.197 46.7593L312.989 57.6817L308.828 50.9712L308.517 45.8535L323.612 41.5359Z" fill="white" stroke="#263238" stroke-miterlimit="10" stroke-linecap="round"/>
<path d="M322.25 15.5547C322.25 15.5547 326.867 17.9022 327.081 21.6537C327.296 25.4052 326.224 29.6247 326.224 29.6247C326.224 29.6247 329.12 30.6815 328.692 33.3762C328.263 36.0709 328.367 36.7805 327.51 37.1277C326.653 37.4825 325.361 37.9505 325.361 37.9505C325.361 37.9505 325.361 40.8792 324.179 42.8719C322.997 44.8647 317.198 50.1409 314.192 50.4957C311.185 50.8505 308.393 49.5597 308.393 49.5597C308.393 49.5597 304.744 44.0495 304.204 42.0567C303.665 40.064 302.055 31.2702 302.594 26.1072C303.133 20.9442 304.633 17.6607 308.179 15.9019C311.724 14.1432 316.016 12.8524 322.243 15.5472L322.25 15.5547Z" fill="white" stroke="#263238" stroke-miterlimit="10" stroke-linecap="round"/>
<path d="M321.068 23.4125C321.179 21.065 322.354 20.4838 322.036 18.725C321.711 16.9663 322.036 16.1435 318.387 14.8528C317.302 14.4678 316.3 14.2036 315.422 14.0149C317.426 14.0149 319.672 14.4376 322.257 15.5547C322.257 15.5547 326.874 17.9023 327.088 21.6538C327.303 25.4052 326.231 29.6247 326.231 29.6247C326.231 29.6247 324.946 30.3267 324.725 31.0287C324.51 31.7307 324.4 32.3195 323.971 32.1987C323.543 32.0779 323.004 31.7307 323.218 29.8512C323.432 27.9717 323.329 25.1637 323.329 25.1637C323.329 25.1637 320.965 25.7525 321.075 23.405L321.068 23.4125Z" fill="#263238" stroke="#263238" stroke-miterlimit="10" stroke-linecap="round"/>
<path d="M309.257 28.334L309.471 29.7455L308.725 37.7165L311.731 37.9505" stroke="#263238" stroke-miterlimit="10" stroke-linecap="round"/>
<path d="M308.614 42.0567C308.614 42.0567 311.62 41.2339 315.055 42.2907C315.055 42.2907 310.978 44.7514 308.614 42.0567Z" stroke="#263238" stroke-miterlimit="10" stroke-linecap="round"/>
<path d="M313.445 28.4548C313.445 28.4548 316.237 26.8168 318.601 27.632" stroke="#263238" stroke-miterlimit="10" stroke-linecap="round"/>
<path d="M308.075 28.334C308.075 28.334 306.679 27.0432 304.211 27.632" stroke="#263238" stroke-miterlimit="10" stroke-linecap="round"/>
<path d="M314.413 31.9798C314.413 32.7648 314.772 33.3913 315.221 33.3913C315.671 33.3913 316.03 32.7572 316.03 31.9798C316.03 31.2023 315.671 30.5682 315.221 30.5682C314.772 30.5682 314.413 31.2023 314.413 31.9798Z" fill="#263238"/>
<path d="M305.981 31.9798C305.981 32.7648 306.34 33.3913 306.79 33.3913C307.239 33.3913 307.598 32.7572 307.598 31.9798C307.598 31.2023 307.239 30.5682 306.79 30.5682C306.34 30.5682 305.981 31.2023 305.981 31.9798Z" fill="#263238"/>
<path d="M314.199 33.731C314.199 33.731 315.809 35.4897 317.205 35.9577" stroke="#263238" stroke-miterlimit="10" stroke-linecap="round"/>
<path d="M308.186 34.0857C308.186 34.0857 307.218 35.0217 305.822 35.3764" stroke="#263238" stroke-miterlimit="10" stroke-linecap="round"/>
<path d="M327.406 32.327C327.406 32.327 326.867 31.2702 326.121 31.7382C325.367 32.2062 324.939 33.3762 324.939 33.3762C324.939 33.3762 326.549 33.731 326.224 34.7802L325.043 35.2482" stroke="#263238" stroke-miterlimit="10" stroke-linecap="round"/>
<path d="M275.812 52.6923C275.812 52.6923 276.434 48.8804 276.061 47.9293C275.688 46.9782 274.568 45.4761 274.312 44.1174C274.063 42.7587 272.128 42.2077 271.817 43.574C271.506 44.9326 272.813 48.9483 272.813 48.9483V51.3336L275.805 52.6923H275.812Z" fill="white" stroke="#263238" stroke-miterlimit="10" stroke-linecap="round"/>
<path d="M251 49.288H276.807V86.8633H251V49.288Z" fill="white" stroke="#263238" stroke-miterlimit="10" stroke-linecap="round"/>
<path d="M271.292 44.925H271.728C272.331 44.925 272.82 45.459 272.82 46.1177V49.1823C272.82 49.8409 272.331 50.3749 271.728 50.3749H271.292C270.689 50.3749 270.2 49.8409 270.2 49.1823V46.1177C270.2 45.459 270.689 44.925 271.292 44.925Z" fill="white" stroke="#263238" stroke-miterlimit="10" stroke-linecap="round"/>
<path d="M268.424 44.7892H268.859C269.462 44.7892 269.951 45.3231 269.951 45.9818V49.0464C269.951 49.7051 269.462 50.239 268.859 50.239H268.424C267.821 50.239 267.332 49.7051 267.332 49.0464V45.9818C267.332 45.3231 267.821 44.7892 268.424 44.7892Z" fill="white" stroke="#263238" stroke-miterlimit="10" stroke-linecap="round"/>
<path d="M265.991 45.8762H265.562C264.961 45.8762 264.47 46.4121 264.47 47.0689V48.6313C264.47 49.288 264.961 49.824 265.562 49.824H265.991C266.592 49.824 267.083 49.288 267.083 48.6313V47.0689C267.083 46.4121 266.592 45.8762 265.991 45.8762Z" fill="white" stroke="#263238" stroke-miterlimit="10" stroke-linecap="round"/>
<path d="M262.563 46.2234H262.998C263.601 46.2234 264.09 46.7573 264.09 47.416V48.9861C264.09 49.6447 263.601 50.1787 262.998 50.1787H262.563C261.96 50.1787 261.471 49.6447 261.471 48.9861V47.416C261.471 46.7573 261.96 46.2234 262.563 46.2234Z" fill="white" stroke="#263238" stroke-miterlimit="10" stroke-linecap="round"/>
<path d="M273.317 56.5042H254.117" stroke="#263238" stroke-miterlimit="10" stroke-linecap="round"/>
<path d="M273.317 61.5388H254.117" stroke="#263238" stroke-miterlimit="10" stroke-linecap="round"/>
<path d="M273.317 66.5736H254.117" stroke="#263238" stroke-miterlimit="10" stroke-linecap="round"/>
<path d="M273.317 71.6158H254.117" stroke="#263238" stroke-miterlimit="10" stroke-linecap="round"/>
<path d="M273.317 76.6505H254.117" stroke="#263238" stroke-miterlimit="10" stroke-linecap="round"/>
<path d="M419.338 280.384H388.852V159.838H419.338V280.384Z" fill="#9C9C9C" stroke="#263238" stroke-miterlimit="10"/>
<path d="M229.024 159.838H388.852V280.384H229.024V159.838Z" fill="#C7C7C7" stroke="#263238" stroke-miterlimit="10"/>
<path d="M254.472 159.838H363.404V280.384H254.472V159.838Z" fill="#C7C7C7" stroke="#263238" stroke-miterlimit="10"/>
<path d="M258.35 159.838H359.513V280.384H258.35V159.838Z" fill="#C7C7C7" stroke="#263238" stroke-miterlimit="10"/>
<path d="M262.496 159.838H355.38V280.384H262.496V159.838Z" fill="#C7C7C7" stroke="#263238" stroke-miterlimit="10"/>
<path d="M265.994 159.838H351.875V280.384H265.994V159.838Z" fill="#C7C7C7" stroke="#263238" stroke-miterlimit="10"/>
<path d="M342.884 186.907C343.07 186.907 343.243 186.891 343.423 186.861V253.158C343.243 253.135 343.063 253.112 342.884 253.112C340.568 253.112 338.689 255.166 338.689 257.694C338.689 257.762 338.688 257.83 338.695 257.898H278.621C278.621 257.83 278.628 257.762 278.628 257.694C278.628 255.166 276.748 253.112 274.433 253.112V186.907C276.748 186.907 278.628 184.853 278.628 182.325H338.682C338.682 184.853 340.562 186.907 342.877 186.907H342.884Z" stroke="#263238" stroke-miterlimit="10" stroke-linecap="round"/>
<path d="M221 155H424.411V164.352H221V155Z" fill="#9C9C9C" stroke="#263238" stroke-miterlimit="10"/>
<path d="M223.771 155H396.759V164.352H223.771V155Z" fill="#C7C7C7" stroke="#263238" stroke-miterlimit="10"/>
<path d="M273.197 194.655H277.233V280.69H273.197V194.655Z" fill="#9C9C9C" stroke="#263238" stroke-miterlimit="10"/>
<path d="M270.418 194.655H274.461V280.69H270.418V194.655Z" fill="#9C9C9C" stroke="#263238" stroke-miterlimit="10"/>
<path d="M249.456 194.655H253.499V280.69H249.456V194.655Z" fill="#9C9C9C" stroke="#263238" stroke-miterlimit="10"/>
<path d="M246.691 194.655H250.727V280.69H246.691V194.655Z" fill="#C7C7C7" stroke="#263238" stroke-miterlimit="10"/>
<path d="M123.978 194.655H128.014V280.69H123.978V194.655Z" fill="#9C9C9C" stroke="#263238" stroke-miterlimit="10"/>
<path d="M121.2 194.655H125.236V280.69H121.2V194.655Z" fill="#C7C7C7" stroke="#263238" stroke-miterlimit="10"/>
<path d="M80.7949 194.655H84.8381V280.69H80.7949V194.655Z" fill="#9C9C9C" stroke="#263238" stroke-miterlimit="10"/>
<path d="M78.0235 194.655H82.0598V280.69H78.0235V194.655Z" fill="#C7C7C7" stroke="#263238" stroke-miterlimit="10"/>
<path d="M69.6054 183.884H284.455V187.711H69.6054V183.884Z" fill="#9C9C9C" stroke="#263238" stroke-miterlimit="10"/>
<path d="M69.6124 183.884H243.657V187.711H69.6124V183.884Z" fill="#C7C7C7" stroke="#263238" stroke-miterlimit="10"/>
<path d="M73.227 187.741H278.753V195.146H73.227V187.741Z" fill="#9C9C9C" stroke="#263238" stroke-miterlimit="10"/>
<path d="M73.2271 187.741H246.18V195.146H73.2271V187.741Z" fill="#C7C7C7" stroke="#263238" stroke-miterlimit="10"/>
<path d="M123.708 268.953C123.708 268.953 125.305 272.817 126.107 273.436C126.908 274.063 129.072 274.931 129.3 276.056C129.528 277.18 130.101 278.796 128.954 279.422C127.814 280.049 120.626 280.796 120.626 280.796C120.626 280.796 114.011 280.924 112.415 280.419C110.818 279.92 111.157 278.298 111.385 275.558C111.613 272.817 112.187 270.825 112.187 270.825L123.708 268.953Z" fill="white" stroke="#263238" stroke-miterlimit="10" stroke-linecap="round"/>
<path d="M113.327 278.667C114.696 278.667 120.854 278.916 121.766 278.916C122.678 278.916 129.638 278.041 129.638 278.041C129.638 278.615 129.486 279.12 128.954 279.415C127.814 280.041 120.626 280.788 120.626 280.788C120.626 280.788 114.011 280.917 112.415 280.411C111.475 280.117 111.205 279.43 111.191 278.358C111.966 278.524 112.774 278.667 113.327 278.667Z" fill="white" stroke="#263238" stroke-miterlimit="10" stroke-linecap="round"/>
<path d="M122.796 275.927L122.222 280.411" stroke="#263238" stroke-miterlimit="10" stroke-linecap="round"/>
<path d="M129.459 220.455L122.907 265.216C122.907 265.216 124.621 266.092 124.621 266.59V269.828C124.621 269.828 122.34 272.568 118.345 273.693C114.35 274.818 112.187 273.693 111.731 273.444C111.275 273.195 111.275 268.711 111.275 268.711C111.275 268.711 111.62 262.733 111.503 261.608C111.392 260.484 111.779 221.829 111.779 221.829L129.459 220.455Z" fill="#263238" stroke="#263238" stroke-miterlimit="10" stroke-linecap="round"/>
<path d="M146.039 171.844C146.039 171.844 146.634 174.471 146.039 175.331C145.452 176.192 144.685 177.898 144.07 178.154C143.454 178.411 143.074 177.596 143.192 176.984C143.302 176.373 143.987 174.297 144.111 173.988C144.235 173.678 146.039 171.852 146.039 171.852V171.844Z" fill="white" stroke="#263238" stroke-miterlimit="10" stroke-linecap="round"/>
<path d="M144.512 168.432C144.512 168.432 146.426 171.218 146.039 171.844C145.645 172.471 144.111 175.573 143.703 175.897C143.302 176.222 142.853 177.226 142.411 176.494C141.962 175.754 141.989 174.622 142.432 173.61C142.874 172.606 143.344 168.719 143.344 168.719L144.512 168.432Z" fill="white" stroke="#263238" stroke-miterlimit="10" stroke-linecap="round"/>
<path d="M140.006 165.088C140.006 165.088 144.547 167.594 144.512 168.432C144.477 169.27 143.855 172.705 143.531 173.407C143.213 174.101 142.508 175.58 141.962 175.754C141.416 175.935 140.814 174.901 141.139 174.358C141.464 173.814 142.058 171.361 142.058 171.361L140.752 168.168L140.006 165.096V165.088Z" fill="white" stroke="#263238" stroke-miterlimit="10" stroke-linecap="round"/>
<path d="M138.098 164.198C138.879 164.477 139.688 164.854 140.261 165.209C141.015 165.541 141.436 165.488 141.962 167.398C141.962 167.398 143.399 171.67 143.724 172.863C144.049 174.063 144.083 174.818 142.812 174.275C141.54 173.731 140.42 169.995 140.054 169.632C140.054 169.632 137.766 169.67 136.626 168.961C135.485 168.259 133.626 166.832 134.407 165.579C135.188 164.326 136.971 163.79 138.098 164.19V164.198Z" fill="white" stroke="#263238" stroke-miterlimit="10" stroke-linecap="round"/>
<path d="M146.751 265.586C146.751 265.586 150.628 271.195 151.43 271.814C152.232 272.44 158.618 274.554 159.302 275.18C159.987 275.807 159.648 277.671 159.42 278.048C159.192 278.426 155.425 279.92 147.781 280.169C140.137 280.419 134.774 280.29 133.294 279.92C131.808 279.543 131.926 277.928 131.809 275.557C131.691 273.187 132.382 268.583 132.382 268.583L146.758 265.594L146.751 265.586Z" fill="white" stroke="#263238" stroke-miterlimit="10" stroke-linecap="round"/>
<path d="M131.877 277.143C134.2 277.679 138.582 278.69 145.839 278.048C152.432 277.467 157.706 276.652 159.696 276.327C159.731 277.044 159.551 277.822 159.413 278.048C159.185 278.426 155.418 279.92 147.774 280.169C140.13 280.419 134.766 280.298 133.287 279.92C132.168 279.641 131.96 278.637 131.871 277.143H131.877Z" fill="white" stroke="#263238" stroke-miterlimit="10" stroke-linecap="round"/>
<path d="M124.323 196.535C124.323 196.535 127.634 196.663 128.09 197.41C128.546 198.157 129.576 199.901 129.687 200.278C129.804 200.656 137.559 200.15 147.256 201.652C156.953 203.147 163.567 205.268 163.795 209.872C164.023 214.477 148.348 253.388 148.348 253.388L145.611 262.605L147.553 263.978L147.325 267.843C147.325 267.843 142.874 271.081 140.365 271.459C137.856 271.836 132.493 272.704 132.037 272.085C131.581 271.459 131.235 269.594 131.124 268.598C131.007 267.602 132.61 262.99 132.949 260.499C133.295 258.008 134.207 254.52 134.435 253.773C134.663 253.026 141.215 222.463 141.215 222.463C141.215 222.463 98.3225 224.833 94.9014 224.335C91.4802 223.837 87.6029 220.349 86.8011 218.357C85.9994 216.364 85.5432 211.254 86.573 206.151C87.6028 201.048 87.9415 198.927 87.9415 198.927L122.506 194.693L124.33 196.565L124.323 196.535Z" fill="#263238" stroke="#263238" stroke-miterlimit="10" stroke-linecap="round"/>
<path d="M124.6 207.948C123.992 209.012 123.411 209.903 122.955 210.401" stroke="#949494" stroke-miterlimit="10" stroke-linecap="round"/>
<path d="M128.546 200.06C128.546 200.06 127.206 203.034 125.733 205.857" stroke="#949494" stroke-miterlimit="10" stroke-linecap="round"/>
<path d="M129.797 200.686C129.797 200.686 128.429 207.412 127.627 208.657" stroke="#949494" stroke-miterlimit="10" stroke-linecap="round"/>
<path d="M141.208 222.448C141.208 222.448 146.8 222.236 148.963 221.489C151.126 220.742 154.665 217.375 154.665 217.375" stroke="#263238" stroke-miterlimit="10" stroke-linecap="round"/>
<path d="M135.389 187.726L123.943 183.28L119.064 184.684L119.783 168.078L135.389 187.726Z" fill="#263238" stroke="#263238" stroke-miterlimit="10" stroke-linecap="round"/>
<path d="M112.574 142.006C112.574 142.006 125.809 148.611 126.266 149.358C126.722 150.105 131.173 160.318 131.173 160.318C131.173 160.318 140.98 172.901 142.349 177.513C143.717 182.125 142.922 186.609 140.752 187.477C138.582 188.352 136.418 188.224 135.389 187.726C134.359 187.228 127.634 181.868 127.634 181.868L121.476 175.762C121.476 175.762 122.16 185.476 122.844 188.096C123.529 190.715 126.722 196.693 125.125 198.807C123.529 200.928 114.288 203.917 112.118 204.415C109.948 204.913 96.3734 207.902 93.1803 206.536C89.9872 205.162 88.0451 202.301 87.0222 200.429C85.9993 198.558 84.2852 192.33 83.601 188.096C82.9168 183.861 79.2675 165.549 78.8114 160.937C78.3552 156.325 78.3552 147.229 80.0693 144.489C81.7833 141.749 88.9643 140.255 88.9643 140.255C88.9643 140.255 100.03 136.518 112.581 141.998L112.574 142.006Z" fill="#186E93" stroke="#263238" stroke-miterlimit="10" stroke-linecap="round"/>
<path d="M112.118 109.488C112.118 109.488 115.656 116.093 115.428 117.089C115.2 118.085 115.2 118.712 115.311 119.21C115.428 119.708 119.078 123.324 118.85 124.192C118.622 125.067 116.341 126.811 116.341 126.811C116.341 126.811 116.914 134.163 116.797 134.782C116.679 135.409 116.451 136.903 115.311 137.152C114.171 137.401 109.609 136.156 109.609 136.156L109.955 139.273L93.7541 137.401L93.2979 133.038C93.2979 133.038 87.1398 121.95 86.4555 118.583C85.7713 115.217 88.2801 109.367 90.789 107.246C93.2979 105.125 100.14 101.388 102.31 101.638C104.481 101.887 110.639 103.879 110.639 103.879C110.639 103.879 113.148 101.638 113.493 103.004C113.839 104.378 113.383 105.623 113.383 105.623C113.383 105.623 116.693 104.129 115.891 105.872C115.09 107.616 114.979 108.741 114.177 108.861C113.376 108.982 112.125 109.488 112.125 109.488H112.118Z" fill="white" stroke="#263238" stroke-miterlimit="10" stroke-linecap="round"/>
<path d="M90.7889 107.246C93.2978 105.125 100.14 101.388 102.31 101.638C104.481 101.887 110.639 103.879 110.639 103.879C110.639 103.879 113.148 101.638 113.493 103.004C113.839 104.378 113.383 105.623 113.383 105.623C113.383 105.623 116.693 104.129 115.891 105.872C115.09 107.616 114.979 108.741 114.177 108.861C113.376 108.99 112.125 109.488 112.125 109.488C112.125 109.488 107.563 108.741 108.13 109.737C108.703 110.733 111.44 113.851 110.528 114.968C109.616 116.093 106.533 117.338 106.533 117.338C106.533 117.338 108.247 121.203 107.902 121.822C107.556 122.448 106.188 122.818 106.188 122.818C106.188 122.818 104.135 118.334 103.223 119.202C102.31 120.078 100.596 124.682 101.17 126.305C101.744 127.928 104.481 129.423 104.481 129.423C104.481 129.423 101.744 134.156 99.3453 134.284C96.947 134.412 93.2978 133.038 93.2978 133.038C93.2978 133.038 87.1397 121.95 86.4555 118.583C85.7712 115.217 88.2801 109.367 90.7889 107.246Z" fill="#263238" stroke="#263238" stroke-miterlimit="10" stroke-linecap="round"/>
<path d="M115.428 117.089C115.428 117.089 113.714 115.466 112.692 116.591" stroke="#263238" stroke-miterlimit="10" stroke-linecap="round"/>
<path d="M113.258 119.452C113.258 120.138 113.486 120.697 113.77 120.697C114.053 120.697 114.281 120.138 114.281 119.452C114.281 118.765 114.053 118.206 113.77 118.206C113.486 118.206 113.258 118.765 113.258 119.452Z" fill="#263238"/>
<path d="M92.1576 135.899C92.1576 135.899 102.311 136.397 105.165 136.896C108.019 137.394 112.007 138.39 112.007 138.39L115.09 143.749C115.09 143.749 105.621 141.628 100.714 141.009C95.8068 140.383 88.9645 140.262 88.9645 140.262L92.1576 135.899Z" fill="#7FB3CC" stroke="#263238" stroke-miterlimit="10" stroke-linecap="round"/>
<path d="M116.223 169.414L121.476 175.769L116.223 172.78" stroke="#263238" stroke-miterlimit="10" stroke-linecap="round"/>
<path d="M123.529 150.852C123.529 150.852 119.762 155.215 118.393 159.699" stroke="#263238" stroke-miterlimit="10" stroke-linecap="round"/>
<path d="M71.278 224.825L68.9903 279.203C68.9626 279.8 69.398 280.298 69.944 280.298C70.4348 280.298 70.8494 279.89 70.8978 279.354L75.957 224.999L71.2849 224.825H71.278Z" fill="white" stroke="#263238" stroke-miterlimit="10" stroke-linecap="round"/>
<path d="M100.251 224.825L97.9632 279.203C97.9355 279.8 98.3709 280.298 98.9169 280.298C99.4077 280.298 99.8224 279.89 99.8707 279.354L104.93 224.999L100.258 224.825H100.251Z" fill="white" stroke="#263238" stroke-miterlimit="10" stroke-linecap="round"/>
<path d="M133.329 224.825L135.617 279.203C135.645 279.8 135.209 280.298 134.663 280.298C134.172 280.298 133.758 279.89 133.709 279.354L128.65 224.999L133.322 224.825H133.329Z" fill="white" stroke="#263238" stroke-miterlimit="10" stroke-linecap="round"/>
<path d="M103.257 224.825L105.545 279.203C105.573 279.8 105.137 280.298 104.591 280.298C104.101 280.298 103.686 279.89 103.638 279.354L98.5784 224.999L103.251 224.825H103.257Z" fill="white" stroke="#263238" stroke-miterlimit="10" stroke-linecap="round"/>
<path d="M65.6728 171.376H105.773C105.773 171.376 109.955 217.081 110.196 221.142C110.438 225.21 135.873 222.138 135.873 222.138L136.232 225.127C136.232 225.127 105.766 229.679 93.0076 229.679C80.249 229.679 69.3151 228.539 67.4905 224.561C65.6658 220.583 65.6658 171.384 65.6658 171.384L65.6728 171.376Z" fill="#9C9C9C" stroke="#263238" stroke-miterlimit="10"/>
<path d="M220.386 201.426C220.386 201.426 227.035 201.426 228.701 204C230.366 206.574 230.366 211.261 228.562 214.137C226.758 217.013 208.616 262.703 208.616 262.703C208.616 262.703 213.323 272.387 214.159 273.444C214.988 274.501 218.036 277.075 219.149 277.679C220.255 278.282 220.255 278.886 219.287 279.498C218.32 280.109 204.462 279.498 204.462 279.498C204.462 279.498 202.942 278.592 202.105 277.377C201.276 276.169 196.977 267.692 196.562 266.032C196.148 264.371 198.366 260.733 199.334 259.827C200.301 258.921 200.578 258.468 200.854 258.008C201.131 257.555 211.795 220.787 211.795 220.787L220.386 201.426Z" fill="white" stroke="#263238" stroke-miterlimit="10" stroke-linecap="round"/>
<path d="M205.153 261.344C206.121 263.616 207.51 266.636 209.584 269.511C211.664 272.387 213.323 275.112 213.737 275.263C214.124 275.407 215.32 275.158 215.831 275.12C217.02 276.177 218.451 277.309 219.135 277.686C220.241 278.29 220.241 278.894 219.273 279.505C218.306 280.117 204.448 279.505 204.448 279.505C204.448 279.505 202.928 278.6 202.091 277.384C201.262 276.177 196.963 267.7 196.548 266.039C196.134 264.379 198.352 260.74 199.32 259.835C200.288 258.929 200.564 258.476 200.84 258.015C200.84 258.015 204.165 259.072 205.133 261.344H205.153Z" fill="#263238" stroke="#263238" stroke-miterlimit="10" stroke-linecap="round"/>
<path d="M198.919 265.579C198.919 265.579 201.967 269.813 203.909 273.444C205.851 277.075 208.063 279.347 208.478 279.498C208.54 279.52 208.602 279.581 208.657 279.649C206.287 279.573 204.462 279.498 204.462 279.498C204.462 279.498 202.942 278.592 202.105 277.377C201.276 276.169 196.998 267.73 196.569 266.039C197.295 265.533 198.097 265.277 198.919 265.571V265.579Z" fill="white" stroke="#263238" stroke-miterlimit="10" stroke-linecap="round"/>
<path d="M196.562 266.032C196.562 266.032 199.334 265.277 200.301 266.937C201.269 268.598 200.992 270.719 200.992 270.719L199.61 279.188H197.668L195.837 269.708C195.588 268.424 195.85 267.088 196.555 266.032H196.562Z" fill="#263238" stroke="#263238" stroke-miterlimit="10" stroke-linecap="round"/>
<path d="M204.068 222.455L192.823 265.881L187.287 263.526L191.462 224.727L204.068 222.455Z" fill="white" stroke="#263238" stroke-miterlimit="10" stroke-linecap="round"/>
<path d="M187.142 261.646C187.142 261.646 190.328 258.921 192.409 262.099C194.489 265.277 194.213 274.199 194.074 274.81C193.936 275.414 194.627 279.347 194.627 279.347H184.239C184.239 279.347 183.133 278.894 183.548 276.622C183.963 274.35 184.93 270.87 185.49 267.541C186.043 264.213 187.156 261.639 187.156 261.639L187.142 261.646Z" fill="#263238" stroke="#263238" stroke-miterlimit="10" stroke-linecap="round"/>
<path d="M184.232 279.347C184.232 279.347 183.126 278.894 183.541 276.622C183.582 276.395 183.638 276.139 183.686 275.89C183.942 275.029 184.225 274.055 184.509 272.991C185.476 269.36 186.727 265.428 189.215 265.579C191.71 265.73 191.849 267.398 192.402 269.964C192.954 272.538 194.067 274.803 194.067 274.803C193.929 275.407 194.62 279.339 194.62 279.339H184.232V279.347Z" fill="white" stroke="#263238" stroke-miterlimit="10" stroke-linecap="round"/>
<path d="M189.222 265.579C189.222 265.579 191.303 265.579 191.026 268.002C190.75 270.425 189.506 279.045 189.506 279.045H187.425L186.872 267.398C186.872 267.398 187.425 265.737 189.229 265.579H189.222Z" fill="#263238" stroke="#263238" stroke-miterlimit="10" stroke-linecap="round"/>
<path d="M199.555 199.78C199.555 199.78 218.029 201.124 220.386 201.426C222.743 201.728 223.572 209.895 222.19 214.288C220.808 218.674 216.924 221.399 215.265 221.852C213.599 222.304 187.529 227.196 177.086 227.15C166.905 227.098 161.017 226.245 158.245 221.399C155.474 216.56 157.554 210.808 157.554 210.808L199.562 199.78H199.555Z" fill="#13C7A8" stroke="#263238" stroke-miterlimit="10" stroke-linecap="round"/>
<path d="M191.793 114.281C191.793 114.281 192.381 116.719 192.263 118.002C192.146 119.285 192.146 121.21 192.616 122.878C193.086 124.547 195.318 126.343 195.201 127.241C195.083 128.14 193.086 129.294 193.086 129.294C193.086 129.294 191.213 137.484 189.685 138.254C188.158 139.024 186.029 137.771 186.029 137.771L184.854 140.723L176.27 138.156L173.333 137.9L173.92 128.525C173.92 128.525 175.33 117.995 179.09 112.605C182.85 107.216 188.027 108.627 188.497 109.012C188.967 109.397 191.787 114.273 191.787 114.273L191.793 114.281Z" fill="white" stroke="#263238" stroke-miterlimit="10" stroke-linecap="round"/>
<path d="M183.216 105.042C183.216 105.042 183.334 102.989 187.799 103.117C192.263 103.245 194.496 104.529 194.496 106.967C194.496 109.405 192.733 111.073 192.733 111.458C192.733 111.843 194.026 111.586 193.791 112.741C193.556 113.896 191.793 114.281 191.793 114.281L189.326 110.688C189.326 110.688 189.914 111.586 188.386 114.666C186.859 117.746 184.861 120.184 184.391 120.825C183.921 121.467 182.511 124.033 182.276 126.087C182.041 128.14 183.921 128.653 179.104 131.476C174.287 134.299 170.05 132.246 168.523 130.706C166.995 129.166 162.765 120.946 163.823 115.3C164.88 109.654 165.468 105.797 172.642 104C179.809 102.204 183.223 105.027 183.223 105.027L183.216 105.042Z" fill="#263238" stroke="#263238" stroke-miterlimit="10" stroke-linecap="round"/>
<path d="M185.186 123.18C185.186 123.18 184.737 119.987 183.61 121.58C182.484 123.18 182.263 126.494 182.822 128.706C183.382 130.917 185.297 129.445 185.297 129.445" fill="white"/>
<path d="M185.186 123.18C185.186 123.18 184.737 119.987 183.61 121.58C182.484 123.18 182.263 126.494 182.822 128.706C183.382 130.917 185.297 129.445 185.297 129.445" stroke="#263238" stroke-miterlimit="10" stroke-linecap="round"/>
<path d="M192.263 118.002C192.263 118.002 190.971 116.077 189.914 118.259" stroke="#263238" stroke-miterlimit="10" stroke-linecap="round"/>
<path d="M191.323 123.143C190.999 123.143 190.736 122.538 190.736 121.792C190.736 121.045 190.999 120.44 191.323 120.44C191.648 120.44 191.911 121.045 191.911 121.792C191.911 122.538 191.648 123.143 191.323 123.143Z" fill="#263238"/>
<path d="M171.225 136.752C171.225 136.752 177.217 137.009 180.984 138.42C184.744 139.832 187.094 141.5 187.094 141.5V143.81C187.094 143.81 179.809 141.115 175.69 140.474C171.578 139.832 169.698 139.575 169.698 139.575L171.225 136.752Z" fill="white" stroke="#263238" stroke-miterlimit="10" stroke-linecap="round"/>
<path d="M237.084 179.015C237.084 179.015 244.666 179.74 246.933 180.177C249.193 180.615 250.928 181.634 251.723 182.065C252.518 182.495 252.124 183.521 250.258 183.227C248.391 182.933 246.664 182.502 246.664 182.502C246.664 182.502 245.33 182.797 243.47 183.084C241.604 183.378 239.476 182.94 239.476 182.94L236.683 182.797L237.084 179.015Z" fill="white" stroke="#263238" stroke-miterlimit="10" stroke-linecap="round"/>
<path d="M152.771 147.275C154.299 144.323 157.236 141.5 157.941 141.115C158.646 140.73 169.58 137.907 169.58 137.907C169.58 137.907 177.812 139.447 182.041 140.602C186.271 141.757 188.151 143.04 188.151 143.04L188.269 144.451C188.269 144.451 197.675 147.916 197.91 148.814C198.111 149.577 210.316 165.647 213.959 172.516L237.637 177.203C237.637 177.203 238.439 178.66 238.702 180.253C238.971 181.853 238.439 183.884 238.439 183.884L210.289 184.171V184.118C208.955 184.208 207.876 184.004 207.441 183.793C206.619 183.408 195.104 175.248 195.104 175.248L192.754 186.548C192.754 186.548 195.927 196.18 196.162 196.565C196.397 196.95 199.569 198.875 199.569 199.773C199.569 200.671 200.391 209.789 197.219 214.281C194.047 218.772 182.173 224.169 175.241 222.757C168.308 221.346 159.102 220.976 156.04 216.1C152.986 211.224 155.37 196.187 155.84 192.843C156.31 189.507 156.545 181.544 156.78 179.491C157.015 177.437 153.608 161.646 152.903 156.385C152.198 151.124 151.258 150.226 152.785 147.267L152.771 147.275Z" fill="#186E93" stroke="#263238" stroke-miterlimit="10" stroke-linecap="round"/>
<path d="M172.282 123.913C172.282 123.913 173.692 126.094 176.277 130.329C178.862 134.563 178.627 138.413 175.69 140.474C172.752 142.527 173.34 142.912 174.162 143.81C174.985 144.708 184.156 146.89 175.69 153.57C167.223 160.242 163.346 159.729 164.756 161.141C166.166 162.552 166.166 164.862 163.581 165.119C160.996 165.375 159.586 162.552 159.821 161.141C160.056 159.729 156.179 159.473 154.886 154.725C153.594 149.977 153.476 143.81 157.001 141.243C160.526 138.677 162.641 138.934 160.761 136.111C158.881 133.288 156.883 132.133 161.466 126.351C166.048 120.576 169.58 117.746 172.282 123.913Z" fill="#263238" stroke="#263238" stroke-miterlimit="10" stroke-linecap="round"/>
<path d="M195.09 175.264L189.561 169.746" stroke="#263238" stroke-miterlimit="10" stroke-linecap="round"/>
<path d="M151.873 224.826L149.585 279.203C149.557 279.8 149.993 280.298 150.539 280.298C151.029 280.298 151.444 279.89 151.493 279.354L156.552 224.999L151.88 224.826H151.873Z" fill="white" stroke="#263238" stroke-miterlimit="10" stroke-linecap="round"/>
<path d="M180.846 224.826L178.558 279.203C178.53 279.8 178.966 280.298 179.512 280.298C180.002 280.298 180.417 279.89 180.465 279.354L185.525 224.999L180.852 224.826H180.846Z" fill="white" stroke="#263238" stroke-miterlimit="10" stroke-linecap="round"/>
<path d="M213.917 224.826L216.205 279.203C216.232 279.8 215.797 280.298 215.251 280.298C214.76 280.298 214.345 279.89 214.297 279.354L209.238 224.999L213.91 224.826H213.917Z" fill="white" stroke="#263238" stroke-miterlimit="10" stroke-linecap="round"/>
<path d="M183.852 224.826L186.14 279.203C186.167 279.8 185.732 280.298 185.186 280.298C184.695 280.298 184.28 279.89 184.232 279.354L179.173 224.999L183.845 224.826H183.852Z" fill="white" stroke="#263238" stroke-miterlimit="10" stroke-linecap="round"/>
<path d="M146.267 171.376H186.368C186.368 171.376 190.549 217.081 190.791 221.142C191.033 225.211 216.467 222.138 216.467 222.138L216.827 225.128C216.827 225.128 186.361 229.679 173.602 229.679C160.844 229.679 149.91 228.539 148.085 224.561C146.261 220.583 146.261 171.384 146.261 171.384L146.267 171.376Z" fill="#9C9C9C" stroke="#263238" stroke-miterlimit="10"/>
</svg>
