<?xml version="1.0" encoding="UTF-8"?>
<svg xmlns="http://www.w3.org/2000/svg" xmlns:xlink="http://www.w3.org/1999/xlink" viewBox="0 0 366.17 368.87">
  <defs>
    <style>
      .cls-1 {
        opacity: .13;
      }

      .cls-2 {
        clip-path: url(#clippath-11);
      }

      .cls-3, .cls-4, .cls-5, .cls-6, .cls-7 {
        fill: #fff;
      }

      .cls-8 {
        clip-path: url(#clippath-2);
      }

      .cls-9 {
        clip-path: url(#clippath-13);
      }

      .cls-10 {
        clip-path: url(#clippath-6);
      }

      .cls-4 {
        opacity: .5;
      }

      .cls-11, .cls-12, .cls-6, .cls-13, .cls-14, .cls-15, .cls-16 {
        stroke-linecap: round;
        stroke-linejoin: round;
      }

      .cls-11, .cls-13, .cls-14, .cls-16 {
        fill: none;
      }

      .cls-11, .cls-16 {
        stroke: #fff;
      }

      .cls-12, .cls-6, .cls-13, .cls-14, .cls-15 {
        stroke: #263238;
      }

      .cls-12, .cls-17 {
        fill: #0f4c81;
      }

      .cls-18 {
        clip-path: url(#clippath-7);
      }

      .cls-19 {
        clip-path: url(#clippath-1);
      }

      .cls-20 {
        clip-path: url(#clippath-4);
      }

      .cls-5 {
        opacity: .7;
      }

      .cls-21 {
        clip-path: url(#clippath-12);
      }

      .cls-22 {
        clip-path: url(#clippath-9);
      }

      .cls-23 {
        clip-path: url(#clippath);
      }

      .cls-7 {
        opacity: .53;
      }

      .cls-13 {
        stroke-width: 2px;
      }

      .cls-24 {
        opacity: .14;
      }

      .cls-25 {
        clip-path: url(#clippath-3);
      }

      .cls-26 {
        clip-path: url(#clippath-8);
      }

      .cls-15, .cls-27 {
        fill: #263238;
      }

      .cls-28 {
        clip-path: url(#clippath-14);
      }

      .cls-16 {
        stroke-width: .75px;
      }

      .cls-29 {
        clip-path: url(#clippath-5);
      }

      .cls-30 {
        clip-path: url(#clippath-10);
      }
    </style>
    <clipPath id="clippath">
      <path class="cls-12" d="m144.14,161.52s-26.05-3.08-43.19,10.28c-17.14,13.37-31.88,69.24-31.53,95.97.34,26.74,10.28,40.1,35.3,51.07,25.02,10.97,71.64,6.86,97.69-1.37,26.05-8.23,34.62-37.02,34.28-52.44-.34-15.42-17.48-33.25-23.31-37.02-5.83-3.77-22.28-11.65-30.51-23.99-8.23-12.34-20.22-39.07-38.73-42.5Z"/>
    </clipPath>
    <clipPath id="clippath-1">
      <path class="cls-6" d="m143.22,164.26s-9.33,3-10.67,5.33c-1.33,2.33-.33,18.67-.33,20.67s1.17-1.17,2.17-3.5,4.5-5.83,5.67-5.5c1.17.33,1.83,1.67,1.83,3.83s2.67,5.17,5,6.83c2.33,1.67,4.5,3.33,4.5,3.33,0,0,4.83-7,6-8.83,1.17-1.83,1-5.67,1.17-7,.17-1.33,3.17,3.67,3.83,2.33.67-1.33-1.5-2.5-3.83-6.17-2.33-3.67-1.67-7.5-5.17-10.17-3.5-2.67-7.5-1.83-10.17-1.17Z"/>
    </clipPath>
    <clipPath id="clippath-2">
      <path class="cls-6" d="m121.14,231.85s-5.75-8.25-12.75-9-15.5,5-15.75,7-2,12.75-.75,14.25,6,2.75,15.25-.25,13-6.75,14-12Z"/>
    </clipPath>
    <clipPath id="clippath-3">
      <path class="cls-6" d="m101.64,234.1s-9.38,3.72-9.75,11c-.2,4.03,6.5,5.75,13.5,5.75s17-8.75,23.5-12.5,21.5-12.5,23.25-13.25,7.75,1.25,10.25,2,7.25.75,7.25.75c0,0,3.5,5.5,5.25,5.5s-3.75-8.25-4.5-10-13-5.75-14.5-5.75-36.5,8.75-41.75,10.75-12.5,5.75-12.5,5.75Z"/>
    </clipPath>
    <clipPath id="clippath-4">
      <polygon class="cls-6" points="167.14 221.35 140.36 240.29 201.61 238.54 222.14 221.6 167.14 221.35"/>
    </clipPath>
    <clipPath id="clippath-5">
      <path class="cls-6" d="m187.39,240.1s22-19.25,43.75-25.75,26.25-5.5,25.75,4.25-11,60.75-18,73.75-15.75,36.75-15.5,41.25,8.75,17.75,16.25,22.5,6.75,10.5,2,11.5-10.25,2.75-26.5-7.75-23-25.5-22-29.25,11.5-8.75,15.75-16.25,11.25-35.5,11.75-48.25,5-23.5,5-23.5c0,0-27.5,5-35.5,10l-2.75-12.5Z"/>
    </clipPath>
    <clipPath id="clippath-6">
      <path class="cls-15" d="m208.89,314.35c-.32.56-.68,1.1-1.06,1.64,3.86.43,9.42,1.8,14.06,5.86,1.35,1.19,2.47,2.29,3.42,3.31,4.79-6.43,10.18-26.75,16.26-35.11,15.71-21.59,14.82-61.7,15.32-71.45s-4-10.75-25.75-4.25-43.75,25.75-43.75,25.75l2.75,12.5c8-5,35.5-10,35.5-10,0,0-4.5,10.75-5,23.5s-7.5,40.75-11.75,48.25Z"/>
    </clipPath>
    <clipPath id="clippath-7">
      <path class="cls-6" d="m121.89,244.1s-8,4.5-10.75,9.5,9.08,13.33,21.58,12.83,35.42-14.08,35.42-14.08c0,0,.25,22,4.5,30s23.75,27.5,31.5,32.5,33.75,23.75,37.75,26.75,11.5,8.5,13.25,8.75,20-22,24.25-29.5,8-23.25,6.5-26.75-4.5-.5-7.5,2-30.5,20.75-33,22-4.25,1.75-4.25,1.75c0,0-22.5-21.5-34.5-38s-13-37.75-17.5-45.75-11-11.5-20.75-10.5-30,6.25-46.5,18.5Z"/>
    </clipPath>
    <clipPath id="clippath-8">
      <path class="cls-15" d="m239.58,318.34c-5.29-5.16-25.12-31.77-32.95-47.07-11.47-22.42-12.7-30.06-17.2-38.06s-11.3-8.62-21.05-7.62-27.19,2.81-48.6,14.95c0,0-8.98,4.88-11.73,9.88s7.26,17.59,24.67,16c12.46-1.14,35.42-14.08,35.42-14.08,0,0,.25,22,4.5,30s23.75,27.5,31.5,32.5c4.91,3.17,17.16,11.87,26.49,18.58,2.34-8.37,6.47-12.96,8.95-15.08Z"/>
    </clipPath>
    <clipPath id="clippath-9">
      <path class="cls-6" d="m279.39,320.85c4.25-7.5,8-23.25,6.5-26.75-.87-2.03-2.24-1.87-3.83-.89,1.05,4.68-.01,13.69-5.17,23.39-4.61,8.66-18.85,23.97-26.02,31.42,1.95,1.28,3.57,2.23,4.27,2.33,1.75.25,20-22,24.25-29.5Z"/>
    </clipPath>
    <clipPath id="clippath-10">
      <path class="cls-6" d="m239.64,356.1c-2.21-1.4-4.51-3.55-6.66-5.99-5.16-2.19-12.04-5.04-18.09-8.76-6.5-4-5-6.5-8.75-10.25-2.88-2.88-8.54-3.25-11.02-3.27-1.03,1-1.75,1.92-1.98,2.77-1,3.75,5.75,18.75,22,29.25s21.75,8.75,26.5,7.75,5.5-6.75-2-11.5Z"/>
    </clipPath>
    <clipPath id="clippath-11">
      <path class="cls-15" d="m240.89,357.85c-6.5-3.75-19.75-6.25-28.25-12s-6.25-10.75-12.5-14.75c-2.87-1.84-5.27-1.4-7.02-.4-.87,3.9,5.9,18.74,22.02,29.15,16.25,10.5,21.75,8.75,26.5,7.75,3.16-.66,4.53-3.43,2.9-6.6-1.03-1.23-2.24-2.33-3.65-3.15Z"/>
    </clipPath>
    <clipPath id="clippath-12">
      <path class="cls-6" d="m140.54,151.3s1.16,12.63,1.65,16.61c.49,3.98,1.61,15.45,2.76,19.24,1.15,3.79,7.41,10.38,8.02,8.86.61-1.53,3.7-11.82,2.46-17.94-1.24-6.12-1.62-11.45-.84-12.98s3.54-3.31,3.54-3.31c0,0-4.93-2.47-9.39-5.47s-7.59-6.37-8.2-5.01Z"/>
    </clipPath>
    <clipPath id="clippath-13">
      <path class="cls-6" d="m140.07,153.11s7.2,6.03,12.73,8.2,14.01,2.06,15.2-.82c1.19-2.88-2.1-25.6-4.94-31.58s-5.9-6.08-10.92-6.53c-5.02-.46-15.09,3.64-16.86,8.5-1.77,4.86.24,11.74,1.71,15.82,1.47,4.08,3.08,6.41,3.08,6.41Z"/>
    </clipPath>
    <clipPath id="clippath-14">
      <path class="cls-6" d="m142.23,147.14s-3.23-4.66-6.64-2.79c-3.41,1.88-.75,8.52,1.3,10.83,2.05,2.31,6.02-1.98,6.41-3.08"/>
    </clipPath>
  </defs>
  <g id="Background_Simple" data-name="Background Simple">
    <g>
      <path class="cls-17" d="m344.28,262.38c7.48-61.05-28.74-142.2-66.3-175.71-67.79-60.49-124.11-48.79-167.92-27.13-43.81,21.67-50.06,94-80.31,126.73-30.25,32.73-47.45,76.75-1.56,120.57,45.89,43.82,82.91,21.55,130.89,18.78,47.98-2.78,111.6,19.1,146.02.08,24.03-13.29,35.87-36.35,39.18-63.33Z"/>
      <path class="cls-5" d="m344.28,262.38c7.48-61.05-28.74-142.2-66.3-175.71-67.79-60.49-124.11-48.79-167.92-27.13-43.81,21.67-50.06,94-80.31,126.73-30.25,32.73-47.45,76.75-1.56,120.57,45.89,43.82,82.91,21.55,130.89,18.78,47.98-2.78,111.6,19.1,146.02.08,24.03-13.29,35.87-36.35,39.18-63.33Z"/>
    </g>
  </g>
  <g id="Background">
    <g>
      <g>
        <line class="cls-14" x1="154.43" y1="260.23" x2="154.43" y2="35.29"/>
        <polyline class="cls-14" points="8.21 262.46 150.1 262.46 365.67 332.04"/>
      </g>
      <path class="cls-27" d="m72.85,257.18h-9.83V95.12h20.23l-8.73-31.51h-26.2l-8.73,31.51h20.23v162.06h-9.83c-5.24,0-9.49,4.2-9.59,9.42,0,.02,0,.05,0,.07,0,.01,0,.02,0,.03,0,.03,0,.05,0,.08h0s.01,0,.01,0c.29,2.26,9.58,4.08,21,4.08s20.7-1.81,21-4.08h.05c0-5.3-4.3-9.6-9.6-9.6Z"/>
      <path class="cls-15" d="m203.41,24.14v190.82l143.67,23.64V.5l-143.67,23.64Zm139.94,54.64l-73.05,4.14V16.62l73.05-11.62v73.78Zm-73.05,11.12l73.05-3.35v66.66l-73.05-3.41v-59.9Zm-5.93,59.62l-58.55-2.74v-53.93l58.55-2.68v59.35Zm0-131.95v65.69l-58.55,3.32V26.88l58.55-9.32Zm-58.55,135.49l58.55,3.37v65.11l-58.55-9.32v-59.16Zm64.48,69.42v-65.71l73.05,4.2v73.13l-73.05-11.62Z"/>
    </g>
  </g>
  <g id="Character">
    <g>
      <g>
        <g>
          <ellipse class="cls-17" cx="153.86" cy="319.42" rx="114.95" ry="35.81"/>
          <ellipse class="cls-4" cx="153.86" cy="319.42" rx="114.95" ry="35.81"/>
        </g>
        <g>
          <path class="cls-17" d="m144.14,161.52s-26.05-3.08-43.19,10.28c-17.14,13.37-31.88,69.24-31.53,95.97.34,26.74,10.28,40.1,35.3,51.07,25.02,10.97,71.64,6.86,97.69-1.37,26.05-8.23,34.62-37.02,34.28-52.44-.34-15.42-17.48-33.25-23.31-37.02-5.83-3.77-22.28-11.65-30.51-23.99-8.23-12.34-20.22-39.07-38.73-42.5Z"/>
          <g class="cls-23">
            <path class="cls-1" d="m207.19,315.65c-9.85-1.33-21.53-4-30.37-9.37-18.67-11.33-23.33-32.67-30-40.67-6.67-8-18.67-7.33-24-16-5.33-8.67,3.33-72.67-12-76.67-4.12-1.07-7.22-1.42-9.57-1.36-.1.07-.2.14-.3.22-17.14,13.37-31.88,69.24-31.53,95.97.34,26.74,10.28,40.1,35.3,51.07,25.02,10.97,71.64,6.86,97.69-1.37,1.66-.53,3.25-1.14,4.78-1.82Z"/>
          </g>
          <path class="cls-14" d="m144.14,161.52s-26.05-3.08-43.19,10.28c-17.14,13.37-31.88,69.24-31.53,95.97.34,26.74,10.28,40.1,35.3,51.07,25.02,10.97,71.64,6.86,97.69-1.37,26.05-8.23,34.62-37.02,34.28-52.44-.34-15.42-17.48-33.25-23.31-37.02-5.83-3.77-22.28-11.65-30.51-23.99-8.23-12.34-20.22-39.07-38.73-42.5Z"/>
        </g>
        <g>
          <g>
            <path class="cls-15" d="m133.89,173.6s-17,3.25-20,6.25-15.5,50-15.5,50c0,0,5.5-1.5,10.5.5s5.5,7.25,6,9.75.75,9,.75,9c0,0,50.53-4.51,61.28-7.01s27.11-3.65,27.11-3.65c0,0-27.64-62.34-31.89-64.59s-22-2.5-24.5-2-13.75,1.75-13.75,1.75Z"/>
            <line class="cls-11" x1="117.14" y1="231.35" x2="121.39" y2="196.6"/>
            <line class="cls-11" x1="120.39" y1="205.85" x2="126.14" y2="198.35"/>
            <path class="cls-11" d="m137.64,210.35s16.25-5.25,27-5.25"/>
            <path class="cls-11" d="m152.97,196.01l-1.09,8.33s2.75,0,3,1.25-1,2.5-1,2.5c0,0,7.75,4.25,8.75,9.25"/>
          </g>
          <g>
            <path class="cls-3" d="m143.22,164.26s-9.33,3-10.67,5.33c-1.33,2.33-.33,18.67-.33,20.67s1.17-1.17,2.17-3.5,4.5-5.83,5.67-5.5c1.17.33,1.83,1.67,1.83,3.83s2.67,5.17,5,6.83c2.33,1.67,4.5,3.33,4.5,3.33,0,0,4.83-7,6-8.83,1.17-1.83,1-5.67,1.17-7,.17-1.33,3.17,3.67,3.83,2.33.67-1.33-1.5-2.5-3.83-6.17-2.33-3.67-1.67-7.5-5.17-10.17-3.5-2.67-7.5-1.83-10.17-1.17Z"/>
            <g class="cls-19">
              <path class="cls-17" d="m132.55,169.6c-.89,1.56-.74,9.34-.54,14.95,2.13-2.74,6.51-7.92,9.06-6.94,3.24,1.24,4.48,10.46,4.48,10.46l-2.19-23.84s-.1.02-.14.03c0,0-9.33,3-10.67,5.33Z"/>
              <path class="cls-4" d="m132.55,169.6c-.89,1.56-.74,9.34-.54,14.95,2.13-2.74,6.51-7.92,9.06-6.94,3.24,1.24,4.48,10.46,4.48,10.46l-2.19-23.84s-.1.02-.14.03c0,0-9.33,3-10.67,5.33Z"/>
            </g>
            <path class="cls-14" d="m143.22,164.26s-9.33,3-10.67,5.33c-1.33,2.33-.33,18.67-.33,20.67s1.17-1.17,2.17-3.5,4.5-5.83,5.67-5.5c1.17.33,1.83,1.67,1.83,3.83s2.67,5.17,5,6.83c2.33,1.67,4.5,3.33,4.5,3.33,0,0,4.83-7,6-8.83,1.17-1.83,1-5.67,1.17-7,.17-1.33,3.17,3.67,3.83,2.33.67-1.33-1.5-2.5-3.83-6.17-2.33-3.67-1.67-7.5-5.17-10.17-3.5-2.67-7.5-1.83-10.17-1.17Z"/>
          </g>
          <g>
            <path class="cls-3" d="m121.14,231.85s-5.75-8.25-12.75-9-15.5,5-15.75,7-2,12.75-.75,14.25,6,2.75,15.25-.25,13-6.75,14-12Z"/>
            <g class="cls-8">
              <path class="cls-17" d="m97.74,243.84s-1.99-5.73-1-7.72c1-1.99,4.98-4.98,7.47-7.97,2.49-2.99-5.83,1.69-6.22,0-.32-1.36,4.38-4.07,6.24-5.08-5.82,1.11-11.39,5.16-11.59,6.78-.25,2-2,12.75-.75,14.25.65.77,2.23,1.48,4.88,1.57.6-1.05.98-1.82.98-1.82Z"/>
              <path class="cls-4" d="m97.74,243.84s-1.99-5.73-1-7.72c1-1.99,4.98-4.98,7.47-7.97,2.49-2.99-5.83,1.69-6.22,0-.32-1.36,4.38-4.07,6.24-5.08-5.82,1.11-11.39,5.16-11.59,6.78-.25,2-2,12.75-.75,14.25.65.77,2.23,1.48,4.88,1.57.6-1.05.98-1.82.98-1.82Z"/>
            </g>
            <path class="cls-14" d="m121.14,231.85s-5.75-8.25-12.75-9-15.5,5-15.75,7-2,12.75-.75,14.25,6,2.75,15.25-.25,13-6.75,14-12Z"/>
          </g>
        </g>
        <g>
          <path class="cls-3" d="m101.64,234.1s-9.38,3.72-9.75,11c-.2,4.03,6.5,5.75,13.5,5.75s17-8.75,23.5-12.5,21.5-12.5,23.25-13.25,7.75,1.25,10.25,2,7.25.75,7.25.75c0,0,3.5,5.5,5.25,5.5s-3.75-8.25-4.5-10-13-5.75-14.5-5.75-36.5,8.75-41.75,10.75-12.5,5.75-12.5,5.75Z"/>
          <g class="cls-25">
            <path class="cls-17" d="m121.24,233.06c14.3-7.15,34.64-15.46,34.64-15.46-1.5,0-36.5,8.75-41.75,10.75s-12.5,5.75-12.5,5.75c0,0-9.38,3.72-9.75,11-.2,4.03,6.5,5.75,13.5,5.75s17-8.75,23.5-12.5c1.1-.64,2.45-1.42,3.94-2.28-9.55,1.23-22.31,2.35-11.58-3.01Z"/>
            <path class="cls-4" d="m121.24,233.06c14.3-7.15,34.64-15.46,34.64-15.46-1.5,0-36.5,8.75-41.75,10.75s-12.5,5.75-12.5,5.75c0,0-9.38,3.72-9.75,11-.2,4.03,6.5,5.75,13.5,5.75s17-8.75,23.5-12.5c1.1-.64,2.45-1.42,3.94-2.28-9.55,1.23-22.31,2.35-11.58-3.01Z"/>
          </g>
          <path class="cls-14" d="m101.64,234.1s-9.38,3.72-9.75,11c-.2,4.03,6.5,5.75,13.5,5.75s17-8.75,23.5-12.5,21.5-12.5,23.25-13.25,7.75,1.25,10.25,2,7.25.75,7.25.75c0,0,3.5,5.5,5.25,5.5s-3.75-8.25-4.5-10-13-5.75-14.5-5.75-36.5,8.75-41.75,10.75-12.5,5.75-12.5,5.75Z"/>
        </g>
        <g>
          <path class="cls-6" d="m174.75,178.49l-7.62,42.85,55,.25,8.18-40.64c.31-1.53-.84-2.97-2.4-3.02l-50.6-1.53c-1.25-.04-2.34.85-2.56,2.08Z"/>
          <g>
            <polygon class="cls-3" points="167.14 221.35 140.36 240.29 201.61 238.54 222.14 221.6 167.14 221.35"/>
            <g class="cls-20">
              <polygon class="cls-17" points="167.14 221.35 140.36 240.29 201.61 238.54 222.14 221.6 167.14 221.35"/>
              <polygon class="cls-4" points="167.14 221.35 140.36 240.29 201.61 238.54 222.14 221.6 167.14 221.35"/>
            </g>
            <polygon class="cls-14" points="167.14 221.35 140.36 240.29 201.61 238.54 222.14 221.6 167.14 221.35"/>
          </g>
        </g>
        <g>
          <path class="cls-3" d="m187.39,240.1s22-19.25,43.75-25.75,26.25-5.5,25.75,4.25-11,60.75-18,73.75-15.75,36.75-15.5,41.25,8.75,17.75,16.25,22.5,6.75,10.5,2,11.5-10.25,2.75-26.5-7.75-23-25.5-22-29.25,11.5-8.75,15.75-16.25,11.25-35.5,11.75-48.25,5-23.5,5-23.5c0,0-27.5,5-35.5,10l-2.75-12.5Z"/>
          <g class="cls-29">
            <path class="cls-17" d="m187.39,240.1s22-19.25,43.75-25.75,26.25-5.5,25.75,4.25-11,60.75-18,73.75-15.75,36.75-15.5,41.25,8.75,17.75,16.25,22.5,6.75,10.5,2,11.5-10.25,2.75-26.5-7.75-23-25.5-22-29.25,11.5-8.75,15.75-16.25,11.25-35.5,11.75-48.25,5-23.5,5-23.5c0,0-27.5,5-35.5,10l-2.75-12.5Z"/>
            <path class="cls-4" d="m187.39,240.1s22-19.25,43.75-25.75,26.25-5.5,25.75,4.25-11,60.75-18,73.75-15.75,36.75-15.5,41.25,8.75,17.75,16.25,22.5,6.75,10.5,2,11.5-10.25,2.75-26.5-7.75-23-25.5-22-29.25,11.5-8.75,15.75-16.25,11.25-35.5,11.75-48.25,5-23.5,5-23.5c0,0-27.5,5-35.5,10l-2.75-12.5Z"/>
          </g>
          <path class="cls-14" d="m187.39,240.1s22-19.25,43.75-25.75,26.25-5.5,25.75,4.25-11,60.75-18,73.75-15.75,36.75-15.5,41.25,8.75,17.75,16.25,22.5,6.75,10.5,2,11.5-10.25,2.75-26.5-7.75-23-25.5-22-29.25,11.5-8.75,15.75-16.25,11.25-35.5,11.75-48.25,5-23.5,5-23.5c0,0-27.5,5-35.5,10l-2.75-12.5Z"/>
        </g>
        <path class="cls-6" d="m208.89,314.35c-.32.56-.68,1.1-1.06,1.64,3.86.43,9.42,1.8,14.06,5.86,1.35,1.19,2.47,2.29,3.42,3.31,2.93-9.34,8.68-23.71,13.58-32.81,7-13,17.5-64,18-73.75s-4-10.75-25.75-4.25-43.75,25.75-43.75,25.75l2.75,12.5c8-5,35.5-10,35.5-10,0,0-4.5,10.75-5,23.5s-7.5,40.75-11.75,48.25Z"/>
        <g>
          <path class="cls-27" d="m208.89,314.35c-.32.56-.68,1.1-1.06,1.64,3.86.43,9.42,1.8,14.06,5.86,1.35,1.19,2.47,2.29,3.42,3.31,4.79-6.43,10.18-26.75,16.26-35.11,15.71-21.59,14.82-61.7,15.32-71.45s-4-10.75-25.75-4.25-43.75,25.75-43.75,25.75l2.75,12.5c8-5,35.5-10,35.5-10,0,0-4.5,10.75-5,23.5s-7.5,40.75-11.75,48.25Z"/>
          <g class="cls-10">
            <path class="cls-7" d="m208.89,314.35c-.32.56-.68,1.1-1.06,1.64,3.86.43,9.42,1.8,14.06,5.86,1.35,1.19,2.47,2.29,3.42,3.31,4.79-6.43,10.18-26.75,16.26-35.11,15.71-21.59,14.82-61.7,15.32-71.45s-4-10.75-25.75-4.25-43.75,25.75-43.75,25.75l2.75,12.5c8-5,35.5-10,35.5-10,0,0-4.5,10.75-5,23.5s-7.5,40.75-11.75,48.25Z"/>
            <path class="cls-24" d="m246.32,217.28c-.39-3.55-39.06,12.82-55.37,19.88-2.26,1.8-3.56,2.94-3.56,2.94l2.75,12.5c8-5,35.5-10,35.5-10,0,0-4.5,10.75-5,23.5s-7.5,40.75-11.75,48.25c-.32.56-.68,1.1-1.06,1.64,2.25.25,5.08.83,7.98,2.07,6.06-12.8,12.47-27.65,15.52-39.28,5.5-21,15.5-57,15-61.5Z"/>
            <path class="cls-14" d="m225.64,242.6s7.5-15.25,14-21.5"/>
          </g>
          <path class="cls-14" d="m208.89,314.35c-.32.56-.68,1.1-1.06,1.64,3.86.43,9.42,1.8,14.06,5.86,1.35,1.19,2.47,2.29,3.42,3.31,4.79-6.43,10.18-26.75,16.26-35.11,15.71-21.59,14.82-61.7,15.32-71.45s-4-10.75-25.75-4.25-43.75,25.75-43.75,25.75l2.75,12.5c8-5,35.5-10,35.5-10,0,0-4.5,10.75-5,23.5s-7.5,40.75-11.75,48.25Z"/>
        </g>
        <path class="cls-15" d="m154.43,260.23s12.34-.34,23.65-4.46c11.31-4.11-9.25-11.65-17.14-7.54-7.88,4.11-6.51,12-6.51,12Z"/>
        <g>
          <path class="cls-3" d="m121.89,244.1s-8,4.5-10.75,9.5,9.08,13.33,21.58,12.83,35.42-14.08,35.42-14.08c0,0,.25,22,4.5,30s23.75,27.5,31.5,32.5,33.75,23.75,37.75,26.75,11.5,8.5,13.25,8.75,20-22,24.25-29.5,8-23.25,6.5-26.75-4.5-.5-7.5,2-30.5,20.75-33,22-4.25,1.75-4.25,1.75c0,0-22.5-21.5-34.5-38s-13-37.75-17.5-45.75-11-11.5-20.75-10.5-30,6.25-46.5,18.5Z"/>
          <g class="cls-18">
            <path class="cls-17" d="m227.67,331.3c6.68,4.78,12.49,9.01,14.22,10.3,4,3,11.5,8.5,13.25,8.75.62.09,3.32-2.66,6.73-6.57l-28.63-18.42-5.57,5.94Z"/>
            <path class="cls-4" d="m227.67,331.3c6.68,4.78,12.49,9.01,14.22,10.3,4,3,11.5,8.5,13.25,8.75.62.09,3.32-2.66,6.73-6.57l-28.63-18.42-5.57,5.94Z"/>
          </g>
          <path class="cls-14" d="m121.89,244.1s-8,4.5-10.75,9.5,9.08,13.33,21.58,12.83,35.42-14.08,35.42-14.08c0,0,.25,22,4.5,30s23.75,27.5,31.5,32.5,33.75,23.75,37.75,26.75,11.5,8.5,13.25,8.75,20-22,24.25-29.5,8-23.25,6.5-26.75-4.5-.5-7.5,2-30.5,20.75-33,22-4.25,1.75-4.25,1.75c0,0-22.5-21.5-34.5-38s-13-37.75-17.5-45.75-11-11.5-20.75-10.5-30,6.25-46.5,18.5Z"/>
        </g>
        <g>
          <path class="cls-27" d="m239.58,318.34c-5.29-5.16-25.12-31.77-32.95-47.07-11.47-22.42-12.7-30.06-17.2-38.06s-11.3-8.62-21.05-7.62-27.19,2.81-48.6,14.95c0,0-8.98,4.88-11.73,9.88s7.26,17.59,24.67,16c12.46-1.14,35.42-14.08,35.42-14.08,0,0,.25,22,4.5,30s23.75,27.5,31.5,32.5c4.91,3.17,17.16,11.87,26.49,18.58,2.34-8.37,6.47-12.96,8.95-15.08Z"/>
          <g class="cls-26">
            <path class="cls-7" d="m239.58,318.34c-5.29-5.16-25.12-31.77-32.95-47.07-11.47-22.42-12.7-30.06-17.2-38.06s-11.3-8.62-21.05-7.62-27.19,2.81-48.6,14.95c0,0-8.98,4.88-11.73,9.88s7.26,17.59,24.67,16c12.46-1.14,35.42-14.08,35.42-14.08,0,0,.25,22,4.5,30s23.75,27.5,31.5,32.5c4.91,3.17,17.16,11.87,26.49,18.58,2.34-8.37,6.47-12.96,8.95-15.08Z"/>
            <path class="cls-24" d="m189.32,282.78c-7.5-19-3-57-24-52-15.3,3.64-43.35,16.58-57.44,23.33,1.66,5.74,10.86,13.6,24.84,12.32,12.46-1.14,35.42-14.08,35.42-14.08,0,0,.25,22,4.5,30s23.75,27.5,31.5,32.5c4.91,3.17,17.16,11.87,26.49,18.58.95-3.39,2.19-6.14,3.49-8.38-18.62-13.75-40.62-31.66-44.8-42.27Z"/>
            <line class="cls-14" x1="168.14" y1="252.35" x2="167.39" y2="239.35"/>
          </g>
          <path class="cls-14" d="m239.58,318.34c-5.29-5.16-25.12-31.77-32.95-47.07-11.47-22.42-12.7-30.06-17.2-38.06s-11.3-8.62-21.05-7.62-27.19,2.81-48.6,14.95c0,0-8.98,4.88-11.73,9.88s7.26,17.59,24.67,16c12.46-1.14,35.42-14.08,35.42-14.08,0,0,.25,22,4.5,30s23.75,27.5,31.5,32.5c4.91,3.17,17.16,11.87,26.49,18.58,2.34-8.37,6.47-12.96,8.95-15.08Z"/>
        </g>
        <path class="cls-15" d="m241.89,341.6c4,3,11.5,8.5,13.25,8.75s20-22,24.25-29.5,8-23.25,6.5-26.75-4.5-.5-7.5,2-30.5,20.75-33,22c-.65.33-1.25.6-1.79.83-.72,1.37-1.6,3.49-.96,4.92,1,2.25,5.25,5.25,5.25,5.25l-7.56,11.35c.67.49,1.21.89,1.56,1.15Z"/>
        <g>
          <path class="cls-3" d="m279.39,320.85c4.25-7.5,8-23.25,6.5-26.75-.87-2.03-2.24-1.87-3.83-.89,1.05,4.68-.01,13.69-5.17,23.39-4.61,8.66-18.85,23.97-26.02,31.42,1.95,1.28,3.57,2.23,4.27,2.33,1.75.25,20-22,24.25-29.5Z"/>
          <g class="cls-22">
            <path class="cls-17" d="m255.39,350.28c.06-.03.13-.07.21-.12.02-.01.04-.03.07-.04.1-.07.21-.15.33-.25.04-.03.08-.06.12-.1.09-.07.19-.16.29-.25.05-.05.11-.09.16-.14.12-.11.25-.23.39-.36.08-.07.16-.15.24-.23.11-.1.22-.21.33-.32.09-.09.19-.19.28-.28.09-.09.18-.19.28-.28.23-.24.47-.48.71-.75.04-.04.07-.08.11-.12.15-.16.3-.32.45-.48.06-.06.12-.13.18-.19.52-.57,1.08-1.18,1.66-1.84.02-.02.03-.03.05-.05.2-.23.41-.46.61-.7,0,0,0,0,0,0l-4.37-2.81c-2.49,2.7-4.8,5.14-6.64,7.05,0,0,0,0,0,0,.23.15.46.3.68.44.03.02.06.04.09.06.21.13.42.27.62.39,0,0,0,0,.01,0,.34.21.66.4.96.57.09.05.19.11.28.16.1.05.19.1.28.15.11.06.22.11.32.16.08.04.15.07.22.1.11.05.21.09.31.13.05.02.1.04.15.06.14.05.26.08.36.1.05,0,.11,0,.19-.04.02,0,.04-.02.07-.03Z"/>
            <path class="cls-4" d="m255.39,350.28c.06-.03.13-.07.21-.12.02-.01.04-.03.07-.04.1-.07.21-.15.33-.25.04-.03.08-.06.12-.1.09-.07.19-.16.29-.25.05-.05.11-.09.16-.14.12-.11.25-.23.39-.36.08-.07.16-.15.24-.23.11-.1.22-.21.33-.32.09-.09.19-.19.28-.28.09-.09.18-.19.28-.28.23-.24.47-.48.71-.75.04-.04.07-.08.11-.12.15-.16.3-.32.45-.48.06-.06.12-.13.18-.19.52-.57,1.08-1.18,1.66-1.84.02-.02.03-.03.05-.05.2-.23.41-.46.61-.7,0,0,0,0,0,0l-4.37-2.81c-2.49,2.7-4.8,5.14-6.64,7.05,0,0,0,0,0,0,.23.15.46.3.68.44.03.02.06.04.09.06.21.13.42.27.62.39,0,0,0,0,.01,0,.34.21.66.4.96.57.09.05.19.11.28.16.1.05.19.1.28.15.11.06.22.11.32.16.08.04.15.07.22.1.11.05.21.09.31.13.05.02.1.04.15.06.14.05.26.08.36.1.05,0,.11,0,.19-.04.02,0,.04-.02.07-.03Z"/>
          </g>
          <path class="cls-14" d="m279.39,320.85c4.25-7.5,8-23.25,6.5-26.75-.87-2.03-2.24-1.87-3.83-.89,1.05,4.68-.01,13.69-5.17,23.39-4.61,8.66-18.85,23.97-26.02,31.42,1.95,1.28,3.57,2.23,4.27,2.33,1.75.25,20-22,24.25-29.5Z"/>
        </g>
        <path class="cls-15" d="m239.64,356.1c-7.5-4.75-16-18-16.25-22.5-.02-.37.02-.87.12-1.47-2.38.03-4.12,1.47-4.12,1.47,0,0-5.5-5-9.75-7.75-3.04-1.97-6.98-2.53-8.97-2.68-3.63,2.98-6.99,5.4-7.53,7.43-1,3.75,5.75,18.75,22,29.25s21.75,8.75,26.5,7.75,5.5-6.75-2-11.5Z"/>
        <g>
          <path class="cls-3" d="m239.64,356.1c-2.21-1.4-4.51-3.55-6.66-5.99-5.16-2.19-12.04-5.04-18.09-8.76-6.5-4-5-6.5-8.75-10.25-2.88-2.88-8.54-3.25-11.02-3.27-1.03,1-1.75,1.92-1.98,2.77-1,3.75,5.75,18.75,22,29.25s21.75,8.75,26.5,7.75,5.5-6.75-2-11.5Z"/>
          <g class="cls-30">
            <path class="cls-17" d="m239.64,356.1c-2.21-1.4-4.51-3.55-6.66-5.99-5.16-2.19-12.04-5.04-18.09-8.76-6.5-4-5-6.5-8.75-10.25-2.88-2.88-8.54-3.25-11.02-3.27-1.03,1-1.75,1.92-1.98,2.77-1,3.75,5.75,18.75,22,29.25s21.75,8.75,26.5,7.75,5.5-6.75-2-11.5Z"/>
            <path class="cls-4" d="m239.64,356.1c-2.21-1.4-4.51-3.55-6.66-5.99-5.16-2.19-12.04-5.04-18.09-8.76-6.5-4-5-6.5-8.75-10.25-2.88-2.88-8.54-3.25-11.02-3.27-1.03,1-1.75,1.92-1.98,2.77-1,3.75,5.75,18.75,22,29.25s21.75,8.75,26.5,7.75,5.5-6.75-2-11.5Z"/>
          </g>
          <path class="cls-14" d="m239.64,356.1c-2.21-1.4-4.51-3.55-6.66-5.99-5.16-2.19-12.04-5.04-18.09-8.76-6.5-4-5-6.5-8.75-10.25-2.88-2.88-8.54-3.25-11.02-3.27-1.03,1-1.75,1.92-1.98,2.77-1,3.75,5.75,18.75,22,29.25s21.75,8.75,26.5,7.75,5.5-6.75-2-11.5Z"/>
        </g>
        <g>
          <path class="cls-27" d="m240.89,357.85c-6.5-3.75-19.75-6.25-28.25-12s-6.25-10.75-12.5-14.75c-2.87-1.84-5.27-1.4-7.02-.4-.87,3.9,5.9,18.74,22.02,29.15,16.25,10.5,21.75,8.75,26.5,7.75,3.16-.66,4.53-3.43,2.9-6.6-1.03-1.23-2.24-2.33-3.65-3.15Z"/>
          <g class="cls-2">
            <path class="cls-7" d="m240.89,357.85c-6.5-3.75-19.75-6.25-28.25-12s-6.25-10.75-12.5-14.75c-2.87-1.84-5.27-1.4-7.02-.4-.87,3.9,5.9,18.74,22.02,29.15,16.25,10.5,21.75,8.75,26.5,7.75,3.16-.66,4.53-3.43,2.9-6.6-1.03-1.23-2.24-2.33-3.65-3.15Z"/>
          </g>
          <path class="cls-14" d="m240.89,357.85c-6.5-3.75-19.75-6.25-28.25-12s-6.25-10.75-12.5-14.75c-2.87-1.84-5.27-1.4-7.02-.4-.87,3.9,5.9,18.74,22.02,29.15,16.25,10.5,21.75,8.75,26.5,7.75,3.16-.66,4.53-3.43,2.9-6.6-1.03-1.23-2.24-2.33-3.65-3.15Z"/>
        </g>
        <g>
          <path class="cls-6" d="m116.31,310.03s4.8-5.83,5.48-1.37c.69,4.46-.34,12.68-3.77,15.77-3.43,3.08-5.14-1.71-5.14-1.71l2.06-2.74s1.71,3.43,3.08-2.06c1.37-5.48-2.74-4.8-2.74-4.8l1.03-3.08Z"/>
          <path class="cls-6" d="m112.64,331.96c-2.84,2.1-12.09,2.1-14.93,0-6.01-4.45-4.98-25.95-4.98-25.95h24.86s1.06,21.5-4.95,25.95Z"/>
          <g>
            <path class="cls-14" d="m95.43,301.8c0-2.71,2.51-2.71,2.51-5.41s-2.51-2.71-2.51-5.41,2.51-2.71,2.51-5.42-2.51-2.71-2.51-5.42,2.51-2.71,2.51-5.42"/>
            <path class="cls-14" d="m104.02,301.8c0-2.05,2.51-2.05,2.51-4.11s-2.51-2.06-2.51-4.11,2.51-2.06,2.51-4.11-2.51-2.06-2.51-4.12,2.51-2.06,2.51-4.12"/>
            <path class="cls-14" d="m113.47,301.8c0-2.71,2.51-2.71,2.51-5.41s-2.51-2.71-2.51-5.41,2.51-2.71,2.51-5.42-2.51-2.71-2.51-5.42,2.51-2.71,2.51-5.42"/>
          </g>
          <path class="cls-6" d="m117.59,306.02c0,.63-5.57,1.13-12.43,1.13s-12.43-.51-12.43-1.13,5.57-1.13,12.43-1.13,12.43.51,12.43,1.13Z"/>
        </g>
        <g>
          <g>
            <path class="cls-3" d="m140.54,151.3s1.16,12.63,1.65,16.61c.49,3.98,1.61,15.45,2.76,19.24,1.15,3.79,7.41,10.38,8.02,8.86.61-1.53,3.7-11.82,2.46-17.94-1.24-6.12-1.62-11.45-.84-12.98s3.54-3.31,3.54-3.31c0,0-4.93-2.47-9.39-5.47s-7.59-6.37-8.2-5.01Z"/>
            <g class="cls-21">
              <path class="cls-17" d="m156.59,162.37l-1.02-1.95c-1.84-1.01-4.4-2.48-6.82-4.11-4.45-2.99-7.59-6.37-8.2-5.01,0,0,1.16,12.63,1.65,16.61.49,3.98,1.61,15.45,2.76,19.24.28.93.87,2.02,1.6,3.12-1.21-7.54.1-21.15.1-21.15l9.93-6.75Z"/>
              <path class="cls-4" d="m156.59,162.37l-1.02-1.95c-1.84-1.01-4.4-2.48-6.82-4.11-4.45-2.99-7.59-6.37-8.2-5.01,0,0,1.16,12.63,1.65,16.61.49,3.98,1.61,15.45,2.76,19.24.28.93.87,2.02,1.6,3.12-1.21-7.54.1-21.15.1-21.15l9.93-6.75Z"/>
            </g>
            <path class="cls-14" d="m140.54,151.3s1.16,12.63,1.65,16.61c.49,3.98,1.61,15.45,2.76,19.24,1.15,3.79,7.41,10.38,8.02,8.86.61-1.53,3.7-11.82,2.46-17.94-1.24-6.12-1.62-11.45-.84-12.98s3.54-3.31,3.54-3.31c0,0-4.93-2.47-9.39-5.47s-7.59-6.37-8.2-5.01Z"/>
          </g>
          <g>
            <g>
              <g>
                <path class="cls-3" d="m140.07,153.11s7.2,6.03,12.73,8.2,14.01,2.06,15.2-.82c1.19-2.88-2.1-25.6-4.94-31.58s-5.9-6.08-10.92-6.53c-5.02-.46-15.09,3.64-16.86,8.5-1.77,4.86.24,11.74,1.71,15.82,1.47,4.08,3.08,6.41,3.08,6.41Z"/>
                <g class="cls-9">
                  <path class="cls-17" d="m153.01,152.84c-2.55-7.58-3.18-19.46-3.18-22.64,0-2.45,6.38-5.14,9.3-6.24-1.91-1.18-4.13-1.33-6.99-1.59-5.02-.46-15.09,3.64-16.86,8.5-1.77,4.86.24,11.74,1.71,15.82,1.47,4.08,3.08,6.41,3.08,6.41,0,0,7.2,6.03,12.73,8.2,3.68,1.45,8.67,1.88,11.94,1.15-3.9-1.49-10.03-4.57-11.73-9.62Z"/>
                  <path class="cls-4" d="m153.01,152.84c-2.55-7.58-3.18-19.46-3.18-22.64,0-2.45,6.38-5.14,9.3-6.24-1.91-1.18-4.13-1.33-6.99-1.59-5.02-.46-15.09,3.64-16.86,8.5-1.77,4.86.24,11.74,1.71,15.82,1.47,4.08,3.08,6.41,3.08,6.41,0,0,7.2,6.03,12.73,8.2,3.68,1.45,8.67,1.88,11.94,1.15-3.9-1.49-10.03-4.57-11.73-9.62Z"/>
                </g>
                <path class="cls-14" d="m140.07,153.11s7.2,6.03,12.73,8.2,14.01,2.06,15.2-.82c1.19-2.88-2.1-25.6-4.94-31.58s-5.9-6.08-10.92-6.53c-5.02-.46-15.09,3.64-16.86,8.5-1.77,4.86.24,11.74,1.71,15.82,1.47,4.08,3.08,6.41,3.08,6.41Z"/>
              </g>
              <path class="cls-14" d="m163.6,138.25c.11,2.88-1.69,5.29-4.03,5.38-2.34.09-4.33-2.17-4.44-5.05-.11-2.88,1.69-5.29,4.03-5.38,2.34-.09,4.33,2.17,4.44,5.05Z"/>
              <path class="cls-14" d="m169.26,137.16c.11,2.88-.82,5.26-2.08,5.3-1.26.05-2.37-2.25-2.49-5.13-.11-2.88.82-5.26,2.08-5.3s2.37,2.24,2.49,5.13Z"/>
              <path class="cls-6" d="m163.89,137.21s8.26,1.57,7.47,3.56c-.79,1.99-6.38,4.14-6.38,4.14"/>
              <path class="cls-14" d="m163.39,136.3s.12-1.02,1.39-.37"/>
              <line class="cls-14" x1="154.89" y1="139.05" x2="139.87" y2="144.96"/>
              <path class="cls-13" d="m155.09,134.2s.92-2.38,3.74-2.26"/>
              <line class="cls-13" x1="165.1" y1="132" x2="162.79" y2="132.88"/>
              <path class="cls-14" d="m157.95,148.78s2.97-.78,4.71.98"/>
              <path class="cls-27" d="m159.89,138.8c.14,1-.05,1.86-.41,1.91s-.77-.72-.91-1.73c-.14-1,.05-1.86.41-1.91.36-.05.77.72.91,1.73Z"/>
            </g>
            <g>
              <path class="cls-15" d="m141.28,145.01s-1.01,2,1.82,2.1c2.83.11,4.74-1.27,3.37-2.96-1.37-1.69-3.4-3.35-1.31-5.61,2.09-2.26,6.15-4.16,3.87-6.68-2.28-2.52-10.67-.23-8.58-2.27,2.1-2.04,11.81-4.16,16.17-3.9s12.5-3.1,14.29-7.53c1.78-4.42-.71-12.59-6.57-12.15-5.86.45-10.22,5.63-12.82,5.95s-7.93-2.52-12.4.05c-4.47,2.57-4.62,9.76-5.02,10.64s-6.44,2.21-7.51,8.35c-1.06,6.14,1.74,11.03,4.24,13.76s3.63,3.77,3.63,3.77l6.83-3.53Z"/>
              <g>
                <path class="cls-16" d="m128.55,133.93c-.1,1.52.65,2.66.65,2.66"/>
                <path class="cls-16" d="m154.05,118.1s-2.19-4.77,3.38-4.77,6.36,6.96.6,9.54c-5.77,2.58-18.29,3.18-25.05,6.16-1.69.75-2.77,1.59-3.44,2.44"/>
                <path class="cls-16" d="m143.98,135.04c-2,.71-4.59,1.72-7.23,2.94-5.57,2.58-4.37,5.17-4.37,5.17"/>
                <path class="cls-16" d="m147.69,133.8s-.49.14-1.32.42"/>
              </g>
            </g>
            <g>
              <path class="cls-3" d="m142.23,147.14s-3.23-4.66-6.64-2.79c-3.41,1.88-.75,8.52,1.3,10.83,2.05,2.31,6.02-1.98,6.41-3.08"/>
              <g class="cls-28">
                <path class="cls-17" d="m142.23,147.14s-3.23-4.66-6.64-2.79c-3.41,1.88-.75,8.52,1.3,10.83,2.05,2.31,6.02-1.98,6.41-3.08"/>
                <path class="cls-4" d="m142.23,147.14s-3.23-4.66-6.64-2.79c-3.41,1.88-.75,8.52,1.3,10.83,2.05,2.31,6.02-1.98,6.41-3.08"/>
              </g>
              <path class="cls-14" d="m142.23,147.14s-3.23-4.66-6.64-2.79c-3.41,1.88-.75,8.52,1.3,10.83,2.05,2.31,6.02-1.98,6.41-3.08"/>
            </g>
          </g>
        </g>
      </g>
      <g>
        <rect class="cls-6" x="24.64" y="142.89" width="81.92" height="62.64" rx="5.12" ry="5.12"/>
        <polyline class="cls-6" points="105 187.96 153 200.46 105 176.96"/>
        <rect class="cls-12" x="31.26" y="148.92" width="19.27" height="50.6"/>
        <rect class="cls-12" x="99.89" y="148.92" width="2.41" height="50.6"/>
        <rect class="cls-15" x="99.89" y="172.05" width="2.41" height="4.32"/>
        <line class="cls-6" x1="56.56" y1="150.12" x2="94.51" y2="150.12"/>
        <line class="cls-6" x1="56.56" y1="155.54" x2="94.51" y2="155.54"/>
        <line class="cls-6" x1="56.56" y1="160.96" x2="94.51" y2="160.96"/>
        <line class="cls-6" x1="56.56" y1="166.38" x2="94.51" y2="166.38"/>
        <line class="cls-6" x1="56.56" y1="179.64" x2="94.51" y2="179.64"/>
        <line class="cls-6" x1="56.56" y1="184.45" x2="94.51" y2="184.45"/>
        <line class="cls-6" x1="56.56" y1="189.27" x2="94.51" y2="189.27"/>
        <line class="cls-6" x1="56.56" y1="199.27" x2="94.51" y2="199.27"/>
        <line class="cls-14" x1="31.26" y1="199.51" x2="50.54" y2="148.92"/>
      </g>
    </g>
  </g>
  <g id="Plants">
    <g>
      <g>
        <ellipse class="cls-17" cx="321.68" cy="332.04" rx="16.73" ry="7.5"/>
        <ellipse class="cls-4" cx="321.68" cy="332.04" rx="16.73" ry="7.5"/>
      </g>
      <g>
        <path class="cls-27" d="m302.11,221.06c1.79.78,6.17.68,6.17.68.05,0-.94-2.87-1.02-3.04-.96-2.01-4-5.33-6.47-4.99-1.78.24-2.77,2.02-2.37,3.7.41,1.71,2.17,2.99,3.69,3.65Z"/>
        <path class="cls-27" d="m359.47,206.15c-2.48-.27-5.43,3.13-6.33,5.17-.08.18-.99,3.07-.94,3.07,0,0,.04,0,.05,0-.47.53-.97,1.11-1.5,1.75-.97,1.19-2.06,2.55-3.14,4.1-1.08,1.55-2.22,3.27-3.25,5.18-1.04,1.92-2.03,3.99-2.78,6.26,0,.03-.01.05-.02.08.01-.73-.02-2.78-.04-2.93-.29-2.21-2.14-6.31-4.59-6.76-1.77-.33-3.26,1.06-3.41,2.78-.14,1.76,1.13,3.51,2.37,4.62,1.4,1.25,5.28,2.46,5.59,2.56-.69,2.16-1.23,4.44-1.64,6.78-.24,1.33-.44,2.69-.62,4.04,0-.63-.02-1.2-.03-1.28-.29-2.21-2.14-6.31-4.59-6.76-1.77-.33-3.26,1.06-3.4,2.78-.14,1.76,1.13,3.51,2.37,4.62,1.26,1.12,4.55,2.22,5.42,2.5-.06.52-.13,1.04-.2,1.56-.3,2.5-.59,5-.94,7.45-.13.86-.28,1.7-.43,2.55,0-.56-.02-1.03-.03-1.11-.29-2.21-2.14-6.31-4.59-6.76-1.77-.33-3.26,1.06-3.41,2.78-.14,1.75,1.13,3.51,2.37,4.62,1.2,1.07,4.23,2.11,5.27,2.45-.18.86-.36,1.72-.58,2.55-.16.56-.27,1.11-.47,1.66-.18.55-.35,1.1-.53,1.64-.37,1.03-.76,2.1-1.15,3.09-.27.69-.53,1.35-.8,2.01.13-.86.36-2.54.37-2.68.03-1.48-.49-3.89-1.54-5.58,0-.22,0-.44-.04-.65-.27-1.7-1.87-2.97-3.61-2.5-2.41.64-3.94,4.87-4.05,7.1,0,.13.08,1.56.15,2.47-.12-.52-.23-1.03-.36-1.57-.25-1.07-.54-2.12-.84-3.26-.16-.54-.33-1.09-.5-1.65-.15-.55-.39-1.12-.58-1.69-.48-1.3-1.02-2.6-1.6-3.9.93-.22,4.24-1.07,5.56-2.08,1.32-1.01,2.72-2.67,2.71-4.43-.01-1.72-1.4-3.22-3.19-3.02-2.48.27-4.63,4.22-5.08,6.4-.03.14-.17,1.74-.24,2.62-.35-.78-.7-1.55-1.09-2.33-1.11-2.23-2.3-4.46-3.48-6.68-.36-.68-.71-1.36-1.07-2.05.33-.08,4.28-.99,5.76-2.13,1.32-1.01,2.72-2.67,2.71-4.43-.01-1.72-1.4-3.22-3.19-3.02-2.48.27-4.63,4.22-5.08,6.4-.03.16-.24,2.47-.27,3.06-.78-1.5-1.55-3.01-2.24-4.52-.96-2.09-1.79-4.19-2.43-6.29.15-.04,4.28-.97,5.8-2.14,1.32-1.01,2.72-2.67,2.71-4.43-.01-1.72-1.4-3.22-3.19-3.02-2.48.27-4.63,4.22-5.08,6.4-.04.17-.26,2.65-.27,3.1-.04-.12-.09-.25-.13-.37-.66-2.25-1.03-4.51-1.26-6.64-.14-1.24-.2-2.43-.24-3.59.79-.1,4.37-.57,5.86-1.47,1.42-.86,3-2.36,3.18-4.11.18-1.72-1.04-3.35-2.84-3.35-2.49,0-5.07,3.69-5.75,5.81-.04.12-.29,1.33-.46,2.22,0-.52-.03-1.07-.02-1.57,0-1.89.12-3.61.24-5.14.07-.87.16-1.65.24-2.39.72-.5,3.61-2.53,4.49-3.99.87-1.42,1.57-3.47.93-5.11-.63-1.6-2.47-2.49-4.06-1.67-2.22,1.15-2.8,5.61-2.43,7.8.03.19.87,3.1.91,3.08,0,0,.04-.02.04-.03-.1.7-.19,1.46-.28,2.29-.15,1.53-.31,3.26-.35,5.15-.05,1.89-.05,3.95.15,6.12.19,2.17.51,4.45,1.13,6.75,0,.03.02.05.03.08-.39-.62-1.55-2.3-1.65-2.42-1.46-1.68-5.26-4.08-7.56-3.11-1.65.7-2.14,2.68-1.31,4.19.85,1.54,2.88,2.31,4.53,2.55,1.86.27,5.76-.86,6.08-.95.62,2.19,1.43,4.38,2.37,6.56.54,1.24,1.12,2.48,1.71,3.71-.36-.52-.68-.99-.73-1.05-1.46-1.68-5.26-4.08-7.56-3.11-1.65.7-2.14,2.68-1.31,4.19.85,1.54,2.88,2.31,4.53,2.55,1.67.24,5.02-.66,5.91-.91.23.47.46.94.7,1.41,1.13,2.25,2.27,4.5,3.32,6.73.37.79.71,1.58,1.05,2.36-.32-.46-.59-.85-.64-.91-1.46-1.68-5.26-4.08-7.56-3.11-1.65.7-2.14,2.68-1.31,4.19.85,1.54,2.88,2.31,4.53,2.55,1.59.23,4.69-.57,5.75-.86.32.82.65,1.64.92,2.44.18.56.38,1.08.53,1.65.16.56.31,1.11.46,1.66.26,1.07.53,2.16.75,3.21.16.73.3,1.42.44,2.12-.36-.79-1.1-2.32-1.17-2.44-1.19-1.89-4.58-4.83-7-4.22-1.74.44-2.52,2.33-1.93,3.95.6,1.65,2.5,2.72,4.09,3.2,1.75.54,5.63.05,6.11-.02.23,1.16.45,2.29.63,3.36.65,3.7,1.06,6.81,1.31,8.99.04.39.08.73.12,1.06h-7.51l2.41,47.1c.18,3.58,3.14,6.39,6.72,6.39h0c3.58,0,6.54-2.81,6.72-6.39l2.41-47.1h-6.99c.05-.11.1-.21.16-.32.96-2,2.29-4.87,3.73-8.39.46-1.11.92-2.31,1.39-3.54.47.1,4.31.88,6.1.47,1.62-.37,3.59-1.28,4.31-2.89.71-1.57.07-3.51-1.63-4.08-2.36-.79-5.97,1.89-7.3,3.68-.08.11-.8,1.35-1.24,2.14.19-.5.38-.99.56-1.51.38-1.03.72-2.07,1.1-3.18.16-.54.33-1.1.49-1.65.18-.55.29-1.15.44-1.73.32-1.35.58-2.73.81-4.13.9.33,4.12,1.45,5.79,1.33,1.66-.12,3.74-.73,4.7-2.2.94-1.44.61-3.46-.99-4.28-2.22-1.14-6.19.96-7.77,2.54-.1.1-1.1,1.35-1.64,2.05.13-.84.27-1.68.38-2.54.31-2.47.54-4.99.79-7.49.07-.77.16-1.53.24-2.3.32.12,4.12,1.53,5.98,1.4,1.66-.12,3.74-.73,4.7-2.2.94-1.44.61-3.46-.99-4.28-2.22-1.14-6.19.96-7.77,2.54-.12.12-1.56,1.93-1.91,2.4.18-1.69.37-3.36.63-5.01.35-2.27.82-4.48,1.44-6.59.15.06,4.1,1.55,6.02,1.42,1.66-.12,3.74-.73,4.7-2.2.94-1.44.61-3.46-.99-4.28-2.22-1.14-6.19.96-7.77,2.54-.12.12-1.68,2.07-1.93,2.44.04-.13.06-.26.1-.38.68-2.24,1.63-4.33,2.61-6.23.57-1.11,1.17-2.14,1.78-3.13.71.35,3.96,1.93,5.7,2,1.66.07,3.8-.31,4.92-1.67,1.09-1.33.98-3.37-.52-4.36-2.08-1.38-6.26.28-8,1.67-.09.08-.97.95-1.6,1.6.28-.44.57-.9.84-1.32,1.04-1.57,2.1-2.95,3.04-4.16.54-.68,1.04-1.29,1.52-1.85.88-.02,4.41-.12,5.95-.85,1.51-.71,3.23-2.03,3.59-3.75.36-1.69-.68-3.44-2.47-3.63Zm-27.46,66.64c-1.5,3.45-2.88,6.27-3.87,8.22-.2.39-.38.74-.55,1.06h-.17c-.05-.38-.1-.8-.17-1.27-.3-2.2-.78-5.33-1.52-9.05-.23-1.18-.5-2.43-.79-3.72.29-.12,1.95-.79,3.41-1.6,1.28,1.38,4.55,3,4.97,3.21-.45,1.09-.89,2.16-1.32,3.15Z"/>
        <path class="cls-27" d="m346.41,222.02s.8-2.91.82-3.1c.31-2.21-.4-6.65-2.64-7.74-1.62-.78-3.43.16-4.02,1.78-.6,1.65.16,3.69,1.07,5.08,1.06,1.64,4.77,3.97,4.77,3.98Z"/>
      </g>
    </g>
  </g>
</svg>